<?xml version="1.0" encoding="UTF-8" standalone="no"?>
<!-- Created with Inkscape (http://www.inkscape.org/) -->

<svg
   width="135.81943mm"
   height="135.81946mm"
   viewBox="0 0 135.81943 135.81946"
   version="1.1"
   id="svg1"
   xml:space="preserve"
   inkscape:export-filename="bitmap.svg"
   inkscape:export-xdpi="96"
   inkscape:export-ydpi="96"
   xmlns:inkscape="http://www.inkscape.org/namespaces/inkscape"
   xmlns:sodipodi="http://sodipodi.sourceforge.net/DTD/sodipodi-0.dtd"
   xmlns="http://www.w3.org/2000/svg"
   xmlns:svg="http://www.w3.org/2000/svg"><sodipodi:namedview
     id="namedview1"
     pagecolor="#ffffff"
     bordercolor="#000000"
     borderopacity="0.25"
     inkscape:showpageshadow="2"
     inkscape:pageopacity="0.0"
     inkscape:pagecheckerboard="0"
     inkscape:deskcolor="#d1d1d1"
     inkscape:document-units="mm"><inkscape:page
       x="0"
       y="0"
       width="135.81943"
       height="135.81946"
       id="page2"
       margin="0"
       bleed="0" /></sodipodi:namedview><defs
     id="defs1" /><g
     inkscape:label="Layer 1"
     inkscape:groupmode="layer"
     id="layer1"
     transform="translate(-38.82712,-35.431579)"><g
       id="layer-MC1"
       inkscape:label="Layer 2"
       transform="matrix(0.26458333,0,0,0.26458334,-46.544887,-3.1901464)"><path
         id="path1"
         d="M 0,0 C 0,98.031 79.469,177.5 177.5,177.5 275.531,177.5 355,98.031 355,0 355,-98.031 275.531,-177.5 177.5,-177.5 79.469,-177.5 0,-98.031 0,0 Z"
         style="fill:none;stroke:#231f20;stroke-width:1;stroke-linecap:butt;stroke-linejoin:miter;stroke-miterlimit:10;stroke-dasharray:none;stroke-opacity:1"
         transform="matrix(1.3333333,0,0,-1.3333333,341.73653,402.23453)" /><path
         id="path2"
         d="M 0,0 C 0,105.763 85.737,191.5 191.5,191.5 297.263,191.5 383,105.763 383,0 383,-105.763 297.263,-191.5 191.5,-191.5 85.737,-191.5 0,-105.763 0,0 Z"
         style="fill:none;stroke:#231f20;stroke-width:2;stroke-linecap:butt;stroke-linejoin:miter;stroke-miterlimit:10;stroke-dasharray:none;stroke-opacity:1"
         transform="matrix(1.3333333,0,0,-1.3333333,323.9992,402.63853)" /><path
         id="path3"
         d="M 67.404811,-21.233172 H 30.162623 L 23.084498,0.00120312 H 0.49074844 L 38.869655,-103.07692 H 58.545436 L 97.13528,0.00120312 H 74.553248 Z M 35.893092,-38.448016 H 61.662623 L 48.713405,-77.026141 Z m 124.353518,11.402344 c 0,-4.007812 -1.41797,-7.083984 -4.25391,-9.234375 -2.83008,-2.147461 -7.92773,-4.412109 -15.29297,-6.796875 -7.35937,-2.381836 -13.18945,-4.728516 -17.48437,-7.042969 -11.7041,-6.328125 -17.55469,-14.847656 -17.55469,-25.558593 0,-5.569336 1.56445,-10.538086 4.69922,-14.90625 3.14062,-4.365235 7.64648,-7.775391 13.52344,-10.230466 5.88281,-2.45215 12.48047,-3.67969 19.79297,-3.67969 7.35937,0 13.91601,1.33301 19.67578,3.99609 5.76562,2.666019 10.23632,6.430667 13.41797,11.296878 3.1875,4.860352 4.78125,10.379883 4.78125,16.558594 h -21.23438 c 0,-4.716797 -1.48828,-8.384766 -4.46484,-11.003906 -2.97071,-2.616211 -7.14551,-3.925782 -12.52735,-3.925782 -5.19726,0 -9.23437,1.098633 -12.11718,3.292969 -2.87696,2.197266 -4.3125,5.085938 -4.3125,8.671875 0,3.351563 1.6875,6.161133 5.0625,8.425781 3.375,2.267578 8.34375,4.388672 14.90625,6.363282 12.08496,3.641601 20.88574,8.15332 26.40234,13.535156 5.52246,5.375976 8.28516,12.076172 8.28516,20.097656 0,8.923828 -3.375,15.922852 -10.125,21.0000001 -6.75,5.0712891 -15.8379,7.6054688 -27.25782,7.6054688 -7.93066,0 -15.15234,-1.44726565 -21.66797,-4.3476563 -6.50976,-2.90625 -11.47265,-6.8818359 -14.89453,-11.9296876 -3.42187,-5.053711 -5.13281,-10.910156 -5.13281,-17.566406 h 21.30469 c 0,11.375976 6.79687,17.0625 20.39062,17.0625 5.05371,0 8.99414,-1.025391 11.82422,-3.082031 2.83594,-2.053711 4.25391,-4.921875 4.25391,-8.601563 z m 116.64258,-7.289062 c -0.80567,11.094726 -4.9043,19.828125 -12.29297,26.2031246 -7.38282,6.3691406 -17.11524,9.5507813 -29.19141,9.5507813 -13.21875,0 -23.61914,-4.4472657 -31.19531,-13.3476559 -7.57031,-8.897461 -11.35547,-21.108399 -11.35547,-36.632813 v -6.304687 c 0,-9.914063 1.74609,-18.644532 5.23828,-26.191407 3.49219,-7.552734 8.47852,-13.347656 14.96484,-17.378906 6.49219,-4.037113 14.03321,-6.058593 22.62891,-6.058593 11.88867,0 21.46875,3.1875 28.73438,9.562499 7.27148,6.369141 11.47558,15.310547 12.60937,26.824219 h -21.24609 c -0.51563,-6.65625 -2.36719,-11.478516 -5.55469,-14.472656 -3.1875,-3 -8.03613,-4.5 -14.54297,-4.5 -7.08691,0 -12.38672,2.540039 -15.90234,7.617187 -3.51563,5.071289 -5.32032,12.9375 -5.41407,23.601563 v 7.792969 c 0,11.141601 1.6875,19.286132 5.0625,24.433593 3.375,5.141602 8.69825,7.710938 15.97266,7.710938 6.55371,0 11.44922,-1.5 14.68359,-4.5 3.23438,-3 5.08594,-7.634766 5.55469,-13.910156 z m 0,0"
         style="fill:#231f20;fill-opacity:1;fill-rule:nonzero;stroke:none"
         aria-label="ASC"
         transform="matrix(1.3333333,0,0,1.3333333,391.8652,429.45933)" /><path
         id="path4"
         d="m 9.7622328,-3.0827219 h -5.390625 l -1.03125,3.082031275 H 0.07082656 L 5.6255141,-14.930378 h 2.859375 L 14.074733,-6.90625e-4 h -3.28125 z m -4.5585937,-2.484375 h 3.7265625 l -1.875,-5.5898441 z m 15.2080079,3.3867188 c 0.544922,0 0.987305,-0.1464844 1.324219,-0.4453125 0.342773,-0.3046875 0.521484,-0.7060547 0.539062,-1.2070313 h 2.777344 c -0.0088,0.75 -0.216797,1.4384766 -0.621094,2.0625 -0.398437,0.6269531 -0.949219,1.11328127 -1.652344,1.46484377 -0.697265,0.34277344 -1.470703,0.515625 -2.320312,0.515625 -1.587891,0 -2.835938,-0.50390625 -3.75,-1.51171877 -0.914063,-1.0136719 -1.371094,-2.4082031 -1.371094,-4.1835937 v -0.1992188 c 0,-1.7109375 0.451172,-3.0732422 1.359375,-4.0898437 0.914063,-1.0136719 2.16211,-1.5234379 3.75,-1.5234379 1.382813,0 2.490235,0.395508 3.328125,1.183594 0.84375,0.7910157 1.268555,1.8398439 1.277344,3.1523439 h -2.777344 c -0.01758,-0.5771485 -0.196289,-1.0458985 -0.539062,-1.40625 -0.336914,-0.3574219 -0.785157,-0.5390625 -1.347657,-0.5390625 -0.688476,0 -1.207031,0.2548828 -1.558593,0.7617187 -0.351563,0.5009766 -0.527344,1.3125 -0.527344,2.4375 v 0.3164063 c 0,1.1425781 0.169922,1.9628906 0.515625,2.4609375 0.351562,0.5009765 0.881836,0.75 1.59375,0.75 z M 33.69485,-6.90625e-4 C 33.554225,-0.2643625 33.451686,-0.59834688 33.390163,-0.99678438 32.678248,-0.19112031 31.749538,0.21024687 30.6011,0.21024687 c -1.095703,0 -1.998047,-0.31640625 -2.707031,-0.94921875 C 27.182155,-1.3717844 26.827663,-2.1628 26.827663,-3.1178781 c 0,-1.1777344 0.433593,-2.0800782 1.300781,-2.7070313 0.873047,-0.6328125 2.135742,-0.9492187 3.785156,-0.9492187 h 1.359375 v -0.6445313 c 0,-0.5068359 -0.134766,-0.9140625 -0.398437,-1.21875 -0.257813,-0.3105469 -0.673829,-0.46875 -1.242188,-0.46875 -0.500977,0 -0.896484,0.1230469 -1.183594,0.3632813 -0.28125,0.234375 -0.421875,0.5625 -0.421875,0.984375 h -2.953125 c 0,-0.647461 0.19336,-1.2451172 0.585938,-1.7929688 0.398437,-0.5449221 0.960937,-0.9726561 1.6875,-1.2773441 0.726562,-0.310547 1.538086,-0.46875 2.4375,-0.46875 1.365234,0 2.452148,0.345703 3.257812,1.03125 0.802735,0.6884769 1.207032,1.6523441 1.207032,2.8945316 v 4.8046875 c 0.0059,1.0546875 0.152343,1.85156252 0.433593,2.39062502 V -6.90625e-4 Z M 31.245631,-2.0631906 c 0.436524,0 0.837891,-0.09668 1.207032,-0.2929688 0.36621,-0.1933594 0.638671,-0.4570312 0.820312,-0.7851562 v -1.9101563 h -1.113281 c -1.476563,0 -2.267578,0.515625 -2.367188,1.546875 l -0.01172,0.1757813 c 0,0.3691406 0.128906,0.6738281 0.386718,0.9140625 0.263672,0.234375 0.624024,0.3515625 1.078125,0.3515625 z m 7.338867,-3.5625 c 0,-1.734375 0.386719,-3.1113282 1.160157,-4.1367188 0.773437,-1.0224606 1.833984,-1.5351566 3.1875,-1.5351566 1.078125,0 1.96875,0.404297 2.671875,1.207032 v -5.660157 h 2.976562 V -6.90625e-4 H 45.908717 L 45.756373,-1.1842844 c -0.735351,0.93164065 -1.68457,1.39453127 -2.847656,1.39453127 -1.30664,0 -2.352539,-0.515625 -3.140625,-1.54687497 -0.791015,-1.03125 -1.183594,-2.4609375 -1.183594,-4.2890625 z m 2.964844,0.2109375 c 0,1.040039 0.178711,1.836914 0.539063,2.390625 0.357422,0.5566406 0.884765,0.8320312 1.582031,0.8320312 0.914062,0 1.558594,-0.3867187 1.933594,-1.1601562 v -4.3828125 c -0.369141,-0.7734375 -1.004883,-1.1601563 -1.910157,-1.1601563 -1.429687,0 -2.144531,1.1601563 -2.144531,3.4804688 z m 14.950196,5.62499997 c -1.625977,0 -2.950196,-0.49804687 -3.972657,-1.49999997 -1.02539,-0.9990235 -1.535156,-2.3320313 -1.535156,-3.9960938 v -0.28125 c 0,-1.1162109 0.213867,-2.1123047 0.644531,-2.9882812 0.427735,-0.881836 1.03711,-1.5585939 1.828125,-2.0273439 0.788086,-0.474609 1.69043,-0.714844 2.707032,-0.714844 1.514648,0 2.707031,0.480469 3.574218,1.4414066 0.873047,0.9550781 1.3125,2.3085938 1.3125,4.0664063 v 1.2070312 h -7.066406 c 0.09961,0.7265625 0.389648,1.3095703 0.867188,1.7460938 0.483398,0.4394531 1.095703,0.65625 1.839843,0.65625 1.139649,0 2.030274,-0.413086 2.671875,-1.2421875 l 1.453125,1.6289062 c -0.445312,0.6269531 -1.048828,1.11914065 -1.804687,1.47656252 -0.758789,0.3515625 -1.59961,0.52734375 -2.519531,0.52734375 z M 56.159694,-8.9069406 c -0.585938,0 -1.063477,0.1992187 -1.429688,0.5976562 -0.36914,0.3984375 -0.603515,0.9667969 -0.703125,1.6992188 h 4.125 v -0.234375 c -0.01758,-0.65625 -0.196289,-1.163086 -0.539062,-1.5234375 C 57.275905,-8.7253 56.792506,-8.9069406 56.159694,-8.9069406 Z m 9.881836,-2.1914064 0.09375,1.2421876 c 0.788086,-0.9609376 1.851562,-1.4414066 3.1875,-1.4414066 1.429687,0 2.408203,0.5625 2.941406,1.6875004 0.779297,-1.1250004 1.892578,-1.6875004 3.339844,-1.6875004 1.201172,0 2.097656,0.351563 2.683593,1.054688 0.585938,0.6972655 0.878907,1.7460936 0.878907,3.1523436 V -6.90625e-4 H 76.201686 V -7.0788156 c 0,-0.6240235 -0.125977,-1.0810547 -0.375,-1.3710938 -0.243164,-0.2958984 -0.676758,-0.4453125 -1.300781,-0.4453125 -0.890625,0 -1.508789,0.4277344 -1.851563,1.2773438 l 0.01172,7.617187475 H 69.721217 V -7.0670969 c 0,-0.6386719 -0.125976,-1.1044922 -0.375,-1.3945312 -0.251953,-0.2871094 -0.679687,-0.4335938 -1.289062,-0.4335938 -0.84375,0 -1.453125,0.3515625 -1.828125,1.0546875 V -6.90625e-4 H 63.264186 V -11.098347 Z M 85.105006,-6.90625e-4 H 82.128444 V -11.098347 h 2.976562 z M 81.952663,-13.969441 c 0,-0.445312 0.146484,-0.808593 0.445312,-1.089843 0.304688,-0.28711 0.708984,-0.433594 1.21875,-0.433594 0.506836,0 0.908203,0.146484 1.207031,0.433594 0.304688,0.28125 0.457032,0.644531 0.457032,1.089843 0,0.454102 -0.152344,0.826172 -0.457032,1.113282 -0.304687,0.28125 -0.708984,0.421875 -1.207031,0.421875 -0.500977,0 -0.902344,-0.140625 -1.207031,-0.421875 -0.304688,-0.28711 -0.457031,-0.65918 -0.457031,-1.113282 z m 10.731445,11.7890629 c 0.544922,0 0.987305,-0.1464844 1.324219,-0.4453125 0.342773,-0.3046875 0.521484,-0.7060547 0.539062,-1.2070313 h 2.777344 c -0.0088,0.75 -0.216797,1.4384766 -0.621094,2.0625 -0.398437,0.6269531 -0.949219,1.11328127 -1.652344,1.46484377 -0.697265,0.34277344 -1.470703,0.515625 -2.320312,0.515625 -1.587891,0 -2.835938,-0.50390625 -3.75,-1.51171877 -0.914063,-1.0136719 -1.371094,-2.4082031 -1.371094,-4.1835937 v -0.1992188 c 0,-1.7109375 0.451172,-3.0732422 1.359375,-4.0898437 0.914063,-1.0136719 2.162109,-1.5234379 3.75,-1.5234379 1.382813,0 2.490234,0.395508 3.328125,1.183594 0.84375,0.7910157 1.268555,1.8398439 1.277344,3.1523439 H 94.547389 C 94.529811,-7.5387766 94.3511,-8.0075266 94.008327,-8.3678781 93.671413,-8.7253 93.22317,-8.9069406 92.66067,-8.9069406 c -0.688476,0 -1.207031,0.2548828 -1.558593,0.7617187 -0.351563,0.5009766 -0.527344,1.3125 -0.527344,2.4375 v 0.3164063 c 0,1.1425781 0.169922,1.9628906 0.515625,2.4609375 0.351562,0.5009765 0.881836,0.75 1.59375,0.75 z m 20.537112,-1.734375 c 0,-0.5859375 -0.20801,-1.03125 -0.6211,-1.3359375 -0.40722,-0.3105469 -1.1455,-0.6386719 -2.21484,-0.984375 -1.06348,-0.3515625 -1.9043,-0.694336 -2.51953,-1.03125 -1.69629,-0.9140625 -2.54297,-2.1445313 -2.54297,-3.6914064 0,-0.811523 0.22559,-1.535156 0.67969,-2.167969 0.45117,-0.632812 1.10449,-1.125 1.95703,-1.476562 0.84961,-0.357422 1.80762,-0.539063 2.87109,-0.539063 1.06055,0 2.00977,0.196289 2.84766,0.585938 0.83496,0.383789 1.48242,0.93164 1.94531,1.640625 0.45996,0.703125 0.69141,1.5 0.69141,2.390625 h -3.08203 c 0,-0.679688 -0.2168,-1.207031 -0.64454,-1.582031 -0.43066,-0.38086 -1.0371,-0.574219 -1.8164,-0.574219 -0.75,0 -1.33594,0.161133 -1.75781,0.480469 -0.41602,0.313476 -0.6211,0.726562 -0.6211,1.242187 0,0.492188 0.24024,0.902344 0.72656,1.2304689 0.49219,0.328125 1.2129,0.6328125 2.16797,0.9140625 1.74903,0.5332031 3.02344,1.1894531 3.82032,1.96875 0.80273,0.7734375 1.20703,1.743164 1.20703,2.90625 0,1.2890625 -0.48926,2.305664 -1.46485,3.04687497 -0.97851,0.73535157 -2.29394,1.1015625 -3.94922,1.1015625 -1.14843,0 -2.19726,-0.210937495 -3.14062,-0.6328125 -0.94629,-0.421875 -1.66992,-0.99609377 -2.16797,-1.72265627 -0.49219,-0.7324219 -0.73828,-1.5849609 -0.73828,-2.5546875 h 3.09375 c 0,1.6494141 0.98437,2.4726563 2.95312,2.4726563 0.72657,0 1.292,-0.1464844 1.69922,-0.4453125 0.41309,-0.2958985 0.6211,-0.7089844 0.6211,-1.2421875 z m 12.14941,2.7890625 c -0.72656,0.89062497 -1.74023,1.33593747 -3.03515,1.33593747 -1.18946,0 -2.09473,-0.34277343 -2.71875,-1.03125 -0.62696,-0.68554687 -0.94629,-1.68749997 -0.96094,-2.99999997 v -7.2773439 h 2.96484 v 7.1718751 c 0,1.1572266 0.52735,1.734375 1.58203,1.734375 0.99903,0 1.6875,-0.3515625 2.0625,-1.0546875 v -7.8515626 h 2.97657 V -6.90625e-4 h -2.78907 z m 15.62402,-4.3242188 c 0,1.7109375 -0.38671,3.0820313 -1.16015,4.1132813 -0.77344,1.03124997 -1.82227,1.54687497 -3.14063,1.54687497 -1.125,0 -2.0332,-0.38964843 -2.71875,-1.171875 V 4.2649344 h -2.96484 V -11.098347 h 2.75391 l 0.0937,1.089844 c 0.71777,-0.858399 1.65527,-1.289063 2.8125,-1.289063 1.36523,0 2.42871,0.509766 3.1875,1.5234379 0.75586,1.0078125 1.13671,2.399414 1.13671,4.171875 z m -2.95312,-0.2109375 c 0,-1.03125 -0.18457,-1.828125 -0.55078,-2.390625 -0.36914,-0.5625 -0.89942,-0.84375 -1.59375,-0.84375 -0.93164,0 -1.57031,0.3574219 -1.92188,1.0664063 v 4.546875 c 0.35743,0.7353515 1.00196,1.1015625 1.9336,1.1015625 1.4209,0 2.13281,-1.1601563 2.13281,-3.4804688 z m 15.30176,0.2109375 c 0,1.7109375 -0.38672,3.0820313 -1.16016,4.1132813 -0.77344,1.03124997 -1.82226,1.54687497 -3.14062,1.54687497 -1.125,0 -2.03321,-0.38964843 -2.71875,-1.171875 V 4.2649344 h -2.96485 V -11.098347 h 2.75391 l 0.0937,1.089844 c 0.71777,-0.858399 1.65527,-1.289063 2.8125,-1.289063 1.36523,0 2.42871,0.509766 3.1875,1.5234379 0.75586,1.0078125 1.13672,2.399414 1.13672,4.171875 z m -2.95313,-0.2109375 c 0,-1.03125 -0.18457,-1.828125 -0.55078,-2.390625 -0.36914,-0.5625 -0.89941,-0.84375 -1.59375,-0.84375 -0.93164,0 -1.57031,0.3574219 -1.92187,1.0664063 v 4.546875 c 0.35742,0.7353515 1.00195,1.1015625 1.93359,1.1015625 1.4209,0 2.13281,-1.1601563 2.13281,-3.4804688 z m 4.86035,0.011719 c 0,-1.1015625 0.21094,-2.0800782 0.63282,-2.9414063 0.42187,-0.8671875 1.03125,-1.5351568 1.82812,-2.0039068 0.79688,-0.46875 1.72266,-0.703125 2.77735,-0.703125 1.5,0 2.72168,0.457032 3.66796,1.3710943 0.94336,0.9140625 1.47071,2.15625 1.58204,3.7265625 l 0.0234,0.7617188 c 0,1.7050781 -0.47754,3.0703125 -1.42968,4.1015625 -0.95508,1.03124997 -2.23243,1.54687497 -3.83204,1.54687497 -1.59375,0 -2.86816,-0.50976562 -3.82031,-1.53515627 -0.95508,-1.03125 -1.42969,-2.4287109 -1.42969,-4.1953125 z m 2.96485,0.2109375 c 0,1.0546875 0.19336,1.8632812 0.58594,2.4257812 0.39843,0.5566406 0.96679,0.8320313 1.71093,0.8320313 0.71778,0 1.27735,-0.272461 1.67578,-0.8203125 0.4043,-0.553711 0.60938,-1.4355469 0.60938,-2.6484375 0,-1.03125 -0.20508,-1.8310547 -0.60938,-2.4023438 -0.39843,-0.5683594 -0.96679,-0.8554687 -1.69921,-0.8554687 -0.72657,0 -1.28907,0.2871093 -1.6875,0.8554687 -0.39258,0.5625 -0.58594,1.4355469 -0.58594,2.6132813 z m 16.11621,-2.8828125 c -0.39844,-0.052734 -0.75586,-0.082031 -1.06641,-0.082031 -1.11914,0 -1.85156,0.3808594 -2.20312,1.1367188 v 7.265624975 h -2.96485 V -11.098347 h 2.80079 l 0.082,1.3242189 c 0.59179,-1.0136719 1.41797,-1.5234379 2.47265,-1.5234379 0.32813,0 0.63574,0.04395 0.92578,0.128907 z m 6.01465,-5.5078131 v 2.730469 h 1.89843 v 2.1796878 h -1.89843 v 5.53125 c 0,0.4160156 0.0762,0.7119141 0.23437,0.890625 0.15528,0.1728516 0.45703,0.2578125 0.90235,0.2578125 0.32812,0 0.61523,-0.023437 0.86718,-0.070312 v 2.25000002 c -0.58007,0.17871094 -1.17773,0.26953125 -1.79297,0.26953125 -2.08007,0 -3.13769,-1.04882812 -3.17578,-3.15234377 v -5.9765625 h -1.61718 v -2.1796873 h 1.61718 v -2.730469 z m 21.74414,8.8593756 c -0.11719,1.602539 -0.71192,2.868164 -1.78125,3.796875 -1.07227,0.92285154 -2.48145,1.38281247 -4.23047,1.38281247 -1.91602,0 -3.42188,-0.64453125 -4.52344,-1.93359377 -1.0957,-1.2890625 -1.64062,-3.0585937 -1.64062,-5.3085937 v -0.9140625 c 0,-1.4355469 0.25195,-2.7011721 0.76172,-3.7968751 0.50683,-1.092774 1.23046,-1.933594 2.16796,-2.519531 0.9375,-0.585938 2.03028,-0.878907 3.28125,-0.878907 1.7168,0 3.10547,0.465821 4.16016,1.394532 1.05469,0.922851 1.66406,2.214843 1.82813,3.8789061 h -3.08204 c -0.0703,-0.9609381 -0.33984,-1.6552741 -0.80859,-2.0859381 -0.46289,-0.436523 -1.16016,-0.65625 -2.09766,-0.65625 -1.03125,0 -1.80175,0.369141 -2.30859,1.101563 -0.50977,0.735351 -0.77051,1.8750001 -0.78516,3.4218751 v 1.125 c 0,1.6113281 0.24024,2.7890625 0.72657,3.5390625 0.49218,0.7441406 1.26562,1.1132812 2.32031,1.1132812 0.95215,0 1.66406,-0.2138672 2.13281,-0.6445312 0.46875,-0.4365235 0.73242,-1.1074219 0.79688,-2.015625 z m 7.45019,5.17968747 c -1.62597,0 -2.95019,-0.49804687 -3.97265,-1.49999997 -1.02539,-0.9990235 -1.53516,-2.3320313 -1.53516,-3.9960938 v -0.28125 c 0,-1.1162109 0.21387,-2.1123047 0.64453,-2.9882812 0.42774,-0.881836 1.03711,-1.5585941 1.82813,-2.0273441 0.78808,-0.474609 1.69043,-0.714844 2.70703,-0.714844 1.51465,0 2.70703,0.480469 3.57422,1.4414068 0.87304,0.9550781 1.3125,2.3085938 1.3125,4.0664063 v 1.2070312 h -7.06641 c 0.0996,0.7265625 0.38965,1.3095703 0.86719,1.7460938 0.4834,0.4394531 1.0957,0.65625 1.83984,0.65625 1.13965,0 2.03028,-0.413086 2.67188,-1.2421875 l 1.45312,1.6289062 c -0.44531,0.6269531 -1.04883,1.11914065 -1.80469,1.47656252 -0.75878,0.3515625 -1.5996,0.52734375 -2.51953,0.52734375 z m -0.33984,-9.11718747 c -0.58594,0 -1.06348,0.1992187 -1.42969,0.5976562 -0.36914,0.3984375 -0.60351,0.9667969 -0.70312,1.6992188 h 4.125 v -0.234375 c -0.0176,-0.65625 -0.19629,-1.163086 -0.53907,-1.5234375 -0.33691,-0.3574219 -0.82031,-0.5390625 -1.45312,-0.5390625 z m 9.83789,-2.1914066 0.0937,1.2890628 c 0.78809,-0.9902348 1.85156,-1.4882818 3.1875,-1.4882818 1.17188,0 2.04199,0.345703 2.61328,1.03125 0.57715,0.6884771 0.87305,1.7197271 0.89063,3.0937506 v 7.171874975 h -2.96485 V -7.1022531 c 0,-0.6240235 -0.13769,-1.078125 -0.41015,-1.359375 -0.27539,-0.2871094 -0.72657,-0.4335938 -1.35938,-0.4335938 -0.83789,0 -1.46191,0.3574219 -1.875,1.0664063 v 7.828124975 h -2.96484 V -11.098347 Z m 13.10449,-2.730469 v 2.730469 h 1.89844 v 2.1796878 h -1.89844 v 5.53125 c 0,0.4160156 0.0762,0.7119141 0.23438,0.890625 0.15527,0.1728516 0.45703,0.2578125 0.90234,0.2578125 0.32813,0 0.61524,-0.023437 0.86719,-0.070312 v 2.25000002 c -0.58008,0.17871094 -1.17774,0.26953125 -1.79297,0.26953125 -2.08008,0 -3.1377,-1.04882812 -3.17578,-3.15234377 v -5.9765625 h -1.61719 v -2.1796873 h 1.61719 v -2.730469 z m 9.18164,14.03906307 c -1.62597,0 -2.95019,-0.49804687 -3.97265,-1.49999997 -1.02539,-0.9990235 -1.53516,-2.3320313 -1.53516,-3.9960938 v -0.28125 c 0,-1.1162109 0.21387,-2.1123047 0.64453,-2.9882812 0.42774,-0.881836 1.03711,-1.5585941 1.82813,-2.0273441 0.78808,-0.474609 1.69043,-0.714844 2.70703,-0.714844 1.51465,0 2.70703,0.480469 3.57422,1.4414068 0.87304,0.9550781 1.3125,2.3085938 1.3125,4.0664063 v 1.2070312 h -7.06641 c 0.0996,0.7265625 0.38965,1.3095703 0.86719,1.7460938 0.4834,0.4394531 1.0957,0.65625 1.83984,0.65625 1.13965,0 2.03028,-0.413086 2.67188,-1.2421875 l 1.45312,1.6289062 c -0.44531,0.6269531 -1.04883,1.11914065 -1.80469,1.47656252 -0.75878,0.3515625 -1.59961,0.52734375 -2.51953,0.52734375 z m -0.33984,-9.11718747 c -0.58594,0 -1.06348,0.1992187 -1.42969,0.5976562 -0.36914,0.3984375 -0.60351,0.9667969 -0.70312,1.6992188 h 4.125 v -0.234375 c -0.0176,-0.65625 -0.19629,-1.163086 -0.53907,-1.5234375 -0.33691,-0.3574219 -0.82031,-0.5390625 -1.45312,-0.5390625 z m 13.33887,0.5859375 c -0.39844,-0.052734 -0.75586,-0.082031 -1.06641,-0.082031 -1.11914,0 -1.85156,0.3808594 -2.20312,1.1367188 v 7.265624975 h -2.96485 V -11.098347 h 2.80078 l 0.082,1.3242189 c 0.5918,-1.0136719 1.41797,-1.5234379 2.47266,-1.5234379 0.32813,0 0.63574,0.04395 0.92578,0.128907 z m 0,0"
         style="fill:#231f20;fill-opacity:1;fill-rule:nonzero;stroke:none"
         aria-label="Academic Support Center"
         transform="matrix(1.3333333,0,0,1.3333333,403.19853,458.38373)" /><path
         id="path5"
         d="M 0,0 C 0,10.148 8.507,18.375 19,18.375 29.493,18.375 38,10.148 38,0 38,-10.148 29.493,-18.375 19,-18.375 8.507,-18.375 0,-10.148 0,0"
         style="fill:#ebb623;fill-opacity:1;fill-rule:nonzero;stroke:none"
         transform="matrix(1.3333333,0,0,-1.3333333,403.19853,491.7828)" /><path
         id="path6"
         d="M 0,0 C 0,10.148 8.507,18.375 19,18.375 29.493,18.375 38,10.148 38,0 38,-10.148 29.493,-18.375 19,-18.375 8.507,-18.375 0,-10.148 0,0"
         style="fill:#7f6eb0;fill-opacity:1;fill-rule:nonzero;stroke:none"
         transform="matrix(1.3333333,0,0,-1.3333333,462.8652,491.7828)" /><path
         id="path7"
         d="M 0,0 C 0,10.148 8.507,18.375 19,18.375 29.493,18.375 38,10.148 38,0 38,-10.148 29.493,-18.375 19,-18.375 8.507,-18.375 0,-10.148 0,0"
         style="fill:#a42b3b;fill-opacity:1;fill-rule:nonzero;stroke:none"
         transform="matrix(1.3333333,0,0,-1.3333333,524.19853,491.7828)" /><path
         id="path8"
         d="M 0,0 C 0,10.148 8.507,18.375 19,18.375 29.493,18.375 38,10.148 38,0 38,-10.148 29.493,-18.375 19,-18.375 8.507,-18.375 0,-10.148 0,0"
         style="fill:#3ba95b;fill-opacity:1;fill-rule:nonzero;stroke:none"
         transform="matrix(1.3333333,0,0,-1.3333333,583.8652,491.7828)" /><path
         id="path9"
         d="M 0,0 C 0,10.148 8.507,18.375 19,18.375 29.493,18.375 38,10.148 38,0 38,-10.148 29.493,-18.375 19,-18.375 8.507,-18.375 0,-10.148 0,0"
         style="fill:#2882c3;fill-opacity:1;fill-rule:nonzero;stroke:none"
         transform="matrix(1.3333333,0,0,-1.3333333,642.8652,491.7828)" /><path
         id="path10"
         d="M 0,0 C 0,10.148 8.507,18.375 19,18.375 29.493,18.375 38,10.148 38,0 38,-10.148 29.493,-18.375 19,-18.375 8.507,-18.375 0,-10.148 0,0"
         style="fill:#c55655;fill-opacity:1;fill-rule:nonzero;stroke:none"
         transform="matrix(1.3333333,0,0,-1.3333333,702.8652,491.7828)" /></g></g></svg>
