<?xml version="1.0" encoding="UTF-8" standalone="no"?>
<!-- Created with Inkscape (http://www.inkscape.org/) -->

<svg
   width="97.555801mm"
   height="61.917763mm"
   viewBox="0 0 97.555801 61.917763"
   version="1.1"
   id="svg1"
   xml:space="preserve"
   xmlns:inkscape="http://www.inkscape.org/namespaces/inkscape"
   xmlns:sodipodi="http://sodipodi.sourceforge.net/DTD/sodipodi-0.dtd"
   xmlns="http://www.w3.org/2000/svg"
   xmlns:svg="http://www.w3.org/2000/svg"><sodipodi:namedview
     id="namedview1"
     pagecolor="#ffffff"
     bordercolor="#000000"
     borderopacity="0.25"
     inkscape:showpageshadow="2"
     inkscape:pageopacity="0.0"
     inkscape:pagecheckerboard="0"
     inkscape:deskcolor="#d1d1d1"
     inkscape:document-units="mm"><inkscape:page
       x="0"
       y="0"
       width="97.555801"
       height="61.917763"
       id="page2"
       margin="0"
       bleed="0" /></sodipodi:namedview><defs
     id="defs1" /><g
     inkscape:label="Layer 1"
     inkscape:groupmode="layer"
     id="layer1"
     transform="translate(-36.454114,-43.079064)"><g
       id="group-MC1"
       transform="matrix(0.26458333,0,0,0.26458334,14.254954,4.0323453)"><path
         id="path2"
         d="M 0,0 C 0,10.148 8.507,18.375 19,18.375 29.493,18.375 38,10.148 38,0 38,-10.148 29.493,-18.375 19,-18.375 8.507,-18.375 0,-10.148 0,0"
         style="fill:#ebb623;fill-opacity:1;fill-rule:nonzero;stroke:none"
         transform="matrix(1.3333333,0,0,-1.3333333,93.659867,357.098)" /><path
         id="path3"
         d="M 0,0 C 0,10.148 8.507,18.375 19,18.375 29.493,18.375 38,10.148 38,0 38,-10.148 29.493,-18.375 19,-18.375 8.507,-18.375 0,-10.148 0,0"
         style="fill:#7f6eb0;fill-opacity:1;fill-rule:nonzero;stroke:none"
         transform="matrix(1.3333333,0,0,-1.3333333,153.32653,357.098)" /><path
         id="path4"
         d="M 0,0 C 0,10.148 8.507,18.375 19,18.375 29.493,18.375 38,10.148 38,0 38,-10.148 29.493,-18.375 19,-18.375 8.507,-18.375 0,-10.148 0,0"
         style="fill:#a42b3b;fill-opacity:1;fill-rule:nonzero;stroke:none"
         transform="matrix(1.3333333,0,0,-1.3333333,214.65987,357.098)" /><path
         id="path5"
         d="M 0,0 C 0,10.148 8.507,18.375 19,18.375 29.493,18.375 38,10.148 38,0 38,-10.148 29.493,-18.375 19,-18.375 8.507,-18.375 0,-10.148 0,0"
         style="fill:#3ba95b;fill-opacity:1;fill-rule:nonzero;stroke:none"
         transform="matrix(1.3333333,0,0,-1.3333333,274.32653,357.098)" /><path
         id="path6"
         d="M 0,0 C 0,10.148 8.507,18.375 19,18.375 29.493,18.375 38,10.148 38,0 38,-10.148 29.493,-18.375 19,-18.375 8.507,-18.375 0,-10.148 0,0"
         style="fill:#2882c3;fill-opacity:1;fill-rule:nonzero;stroke:none"
         transform="matrix(1.3333333,0,0,-1.3333333,333.32653,357.098)" /><path
         id="path7"
         d="M 0,0 C 0,10.148 8.507,18.375 19,18.375 29.493,18.375 38,10.148 38,0 38,-10.148 29.493,-18.375 19,-18.375 8.507,-18.375 0,-10.148 0,0"
         style="fill:#c55655;fill-opacity:1;fill-rule:nonzero;stroke:none"
         transform="matrix(1.3333333,0,0,-1.3333333,393.32653,357.098)" /><path
         id="path8"
         d="M 67.40622,-21.233188 H 30.164033 L 23.085908,0.0011875 H 0.49215781 L 38.871064,-103.07694 H 58.546845 L 97.136689,0.0011875 H 74.554658 Z M 35.894502,-38.448031 H 61.664033 L 48.714814,-77.026156 Z m 124.350588,11.402343 c 0,-4.007812 -1.41797,-7.083984 -4.25391,-9.234375 -2.83008,-2.14746 -7.92773,-4.412109 -15.29297,-6.796875 -7.35937,-2.381835 -13.18945,-4.728515 -17.48437,-7.042968 -11.7041,-6.328125 -17.55469,-14.847657 -17.55469,-25.558594 0,-5.569336 1.56445,-10.538086 4.69922,-14.90625 3.14062,-4.365234 7.64648,-7.775391 13.52344,-10.23047 5.88281,-2.45215 12.48046,-3.67969 19.79296,-3.67969 7.35938,0 13.91602,1.33301 19.67579,3.9961 5.76562,2.666013 10.23632,6.430662 13.41796,11.296872 3.1875,4.860352 4.78125,10.379883 4.78125,16.558594 H 160.3154 c 0,-4.716797 -1.48828,-8.384765 -4.46484,-11.003906 -2.97071,-2.616211 -7.14551,-3.925781 -12.52735,-3.925781 -5.19726,0 -9.23437,1.098633 -12.11719,3.292968 -2.87695,2.197266 -4.31249,5.085938 -4.31249,8.671875 0,3.351563 1.68749,6.161133 5.06249,8.425782 3.375,2.267578 8.34375,4.388672 14.90625,6.363281 12.08497,3.641602 20.88575,8.15332 26.40235,13.535156 5.52246,5.375977 8.28515,12.076172 8.28515,20.097656 0,8.923829 -3.375,15.922852 -10.125,21.0000005 -6.75,5.0712891 -15.83789,7.6054687 -27.25781,7.6054687 -7.93066,0 -15.15234,-1.44726558 -21.66797,-4.3476562 -6.50976,-2.90625 -11.47265,-6.8818359 -14.89453,-11.929688 -3.42187,-5.05371 -5.13281,-10.910156 -5.13281,-17.566406 h 21.30469 c 0,11.375977 6.79687,17.0625 20.39062,17.0625 5.05371,0 8.99414,-1.02539 11.82422,-3.082031 2.83594,-2.053711 4.25391,-4.921875 4.25391,-8.601563 z m 116.64258,-7.289062 c -0.80567,11.094727 -4.9043,19.828125 -12.29297,26.203125 -7.38282,6.3691406 -17.11524,9.5507812 -29.19141,9.5507812 -13.21875,0 -23.61914,-4.4472656 -31.19531,-13.3476562 -7.57031,-8.897461 -11.35547,-21.108398 -11.35547,-36.632813 V -54.866 c 0,-9.914063 1.74609,-18.644531 5.23828,-26.191406 3.49219,-7.552735 8.47852,-13.347657 14.96484,-17.378907 6.49219,-4.037107 14.03321,-6.058597 22.62891,-6.058597 11.88867,0 21.46875,3.1875 28.73438,9.562504 7.27148,6.36914 11.47558,15.310547 12.60937,26.824218 H 255.7822 c -0.51563,-6.65625 -2.36719,-11.478515 -5.55469,-14.472656 -3.1875,-3 -8.03613,-4.5 -14.54297,-4.5 -7.08691,0 -12.38672,2.540039 -15.90234,7.617188 -3.51563,5.071289 -5.32032,12.9375 -5.41407,23.601562 v 7.792969 c 0,11.141602 1.6875,19.286133 5.0625,24.433594 3.375,5.141601 8.69825,7.710937 15.97266,7.710937 6.55371,0 11.44922,-1.5 14.68359,-4.5 3.23438,-3 5.08594,-7.634765 5.55469,-13.910156 z m 0,0"
         style="fill:#231f20;fill-opacity:1;fill-rule:nonzero;stroke:none"
         aria-label="ASC"
         transform="matrix(1.3333333,0,0,1.3333333,83.246133,286.90467)" /><path
         id="path9"
         d="M 10.545459,-3.3288563 H 4.7212406 L 3.6079594,-7.3125e-4 H 0.08061563 L 6.0806156,-16.13745 H 9.1626469 L 15.209522,-7.3125e-4 H 11.670459 Z M 5.6235844,-6.0241688 h 4.03125 L 7.6274906,-12.059325 Z M 22.06792,-2.3562 c 0.585938,0 1.060547,-0.1640625 1.429688,-0.4921875 0.375,-0.328125 0.568359,-0.7617188 0.585937,-1.3007813 h 3 c -0.0088,0.8144532 -0.231445,1.5585938 -0.667968,2.2382813 -0.439454,0.6738281 -1.03711,1.1953125 -1.792969,1.5703125 -0.75,0.375 -1.587891,0.5625 -2.507813,0.5625 -1.710937,0 -3.064453,-0.54199219 -4.054687,-1.6289063 -0.993164,-1.0927734 -1.488281,-2.6015625 -1.488281,-4.5234375 v -0.2109375 c 0,-1.8427734 0.492187,-3.3164062 1.476562,-4.4179687 0.984375,-1.101563 2.332031,-1.652344 4.042969,-1.652344 1.5,0 2.701172,0.427735 3.609375,1.277344 0.905273,0.852539 1.365234,1.9892578 1.382812,3.4101562 h -3 c -0.01758,-0.6240234 -0.210937,-1.1279296 -0.585937,-1.5117187 -0.369141,-0.3896484 -0.852539,-0.5859375 -1.453125,-0.5859375 -0.75,0 -1.31836,0.2753906 -1.699219,0.8203125 -0.375,0.5390625 -0.5625,1.4179687 -0.5625,2.6367187 V -5.82495 c 0,1.2275391 0.1875,2.1152344 0.5625,2.6601562 0.375,0.5390625 0.949219,0.8085938 1.722656,0.8085938 z m 14.34961,2.35546875 c -0.149414,-0.28710938 -0.254883,-0.64746094 -0.316407,-1.07812505 -0.782226,0.86718755 -1.792968,1.3007813 -3.035156,1.3007813 -1.171875,0 -2.144531,-0.33984375 -2.917969,-1.01953125 -0.773437,-0.67968755 -1.160156,-1.53808595 -1.160156,-2.57812505 0,-1.265625 0.46875,-2.2382812 1.40625,-2.9179687 0.94336,-0.6796875 2.308594,-1.0224609 4.089844,-1.03125 h 1.476562 v -0.6914063 c 0,-0.5537109 -0.146484,-0.9960937 -0.433593,-1.3242187 -0.28125,-0.3339844 -0.726563,-0.5039063 -1.335938,-0.5039063 -0.539062,0 -0.966797,0.1289063 -1.277344,0.3867188 -0.304687,0.2578125 -0.457031,0.6152344 -0.457031,1.0664062 h -3.199219 c 0,-0.6943359 0.213868,-1.3359375 0.644532,-1.9218747 0.427734,-0.591797 1.034179,-1.057617 1.816406,-1.394532 0.779297,-0.333984 1.658203,-0.503906 2.636719,-0.503906 1.476562,0 2.648437,0.372071 3.515625,1.113281 0.873047,0.744141 1.3125,1.7871099 1.3125,3.1289067 v 5.203125 c 0,1.1337891 0.155273,1.99218755 0.46875,2.57812505 v 0.1875 z M 33.769092,-2.2272938 c 0.46875,0 0.902344,-0.1054687 1.300781,-0.3164062 0.404297,-0.2109375 0.703125,-0.4921875 0.890625,-0.84375 v -2.0625 h -1.195312 c -1.602539,0 -2.455078,0.5566406 -2.554688,1.6640625 l -0.01172,0.1875 c 0,0.3984375 0.140625,0.7265625 0.421875,0.984375 0.28125,0.2578125 0.662109,0.3867187 1.148437,0.3867187 z m 7.930664,-3.8554687 c 0,-1.875 0.416016,-3.3632813 1.253907,-4.4648435 0.84375,-1.107422 1.992187,-1.664063 3.445312,-1.664063 1.171875,0 2.135742,0.433594 2.894531,1.300781 v -6.117187 h 3.222657 V -7.3125e-4 H 49.621631 L 49.457569,-1.278075 c -0.796875,1.00195312 -1.822266,1.5 -3.070313,1.5 -1.415039,0 -2.551758,-0.55371094 -3.410156,-1.6640625 -0.852539,-1.1162109 -1.277344,-2.6630859 -1.277344,-4.640625 z m 3.210938,0.234375 c 0,1.1191406 0.193359,1.9775391 0.585937,2.578125 0.389649,0.6035156 0.960938,0.9023437 1.710938,0.9023437 0.984375,0 1.678711,-0.4160156 2.085937,-1.2539062 V -8.3562 c -0.398437,-0.8349609 -1.089843,-1.2539063 -2.074218,-1.2539063 -1.541016,0 -2.308594,1.2539063 -2.308594,3.7617188 z M 61.07085,0.221925 c -1.757812,0 -3.193359,-0.5390625 -4.300781,-1.6171875 -1.101563,-1.078125 -1.652344,-2.5136719 -1.652344,-4.3125 v -0.3164063 c 0,-1.2011718 0.228516,-2.2763671 0.691406,-3.2226562 0.46875,-0.952148 1.12793,-1.681641 1.980469,-2.191406 0.858398,-0.515625 1.833984,-0.773438 2.929688,-0.773438 1.640625,0 2.929687,0.521485 3.867187,1.558594 0.943359,1.03125 1.417969,2.4960937 1.417969,4.3945312 v 1.3007813 h -7.640625 c 0.09961,0.7822266 0.413086,1.4121094 0.9375,1.8867187 0.521484,0.4775391 1.183594,0.7148438 1.980469,0.7148438 1.233398,0 2.197265,-0.4482422 2.894531,-1.3476563 l 1.570312,1.7578125 c -0.477539,0.6796875 -1.125,1.21289067 -1.945312,1.59375005 C 62.981006,0.02856562 62.069873,0.221925 61.07085,0.221925 Z m -0.363281,-9.84375 c -0.641602,0 -1.160156,0.2167969 -1.558594,0.6445312 -0.392578,0.4306641 -0.641602,1.0429688 -0.75,1.8398438 H 62.8521 v -0.2578125 c -0.01758,-0.7089844 -0.208008,-1.2568359 -0.574219,-1.640625 -0.36914,-0.3896484 -0.890625,-0.5859375 -1.570312,-0.5859375 z m 10.68164,-2.367188 0.105469,1.335938 c 0.84961,-1.037109 1.998047,-1.558594 3.445313,-1.558594 1.546875,0 2.604492,0.609375 3.175781,1.828125 0.84375,-1.21875 2.044922,-1.828125 3.609375,-1.828125 1.294922,0 2.261719,0.38086 2.894531,1.136719 0.638672,0.758789 0.960938,1.8955078 0.960938,3.4101562 V -7.3125e-4 H 82.369678 V -7.653075 c 0,-0.6796875 -0.134765,-1.1748047 -0.398437,-1.4882813 -0.266602,-0.3105468 -0.738282,-0.46875 -1.417969,-0.46875 -0.955078,0 -1.617188,0.4570313 -1.992188,1.3710938 l 0.01172,8.23828125 h -3.19922 V -7.6413563 c 0,-0.6943359 -0.137695,-1.1953125 -0.410156,-1.5 -0.27539,-0.3105468 -0.738281,-0.46875 -1.394531,-0.46875 -0.914063,0 -1.576172,0.375 -1.980469,1.125 V -7.3125e-4 H 68.389209 V -11.989013 Z M 91.987842,-7.3125e-4 H 88.776905 V -11.989013 h 3.210937 z M 88.589405,-15.094481 c 0,-0.483399 0.158203,-0.878907 0.480468,-1.183594 0.319336,-0.310547 0.75586,-0.46875 1.3125,-0.46875 0.544922,0 0.984375,0.158203 1.3125,0.46875 0.328125,0.304687 0.492188,0.700195 0.492188,1.183594 0,0.486328 -0.169922,0.884765 -0.503906,1.195312 -0.328125,0.313477 -0.761719,0.46875 -1.300782,0.46875 -0.539062,0 -0.972656,-0.155273 -1.300781,-0.46875 -0.328125,-0.310547 -0.492187,-0.708984 -0.492187,-1.195312 z M 100.18804,-2.3562 c 0.58594,0 1.06054,-0.1640625 1.42969,-0.4921875 0.375,-0.328125 0.56835,-0.7617188 0.58593,-1.3007813 h 3 c -0.009,0.8144532 -0.23144,1.5585938 -0.66797,2.2382813 -0.43945,0.6738281 -1.03711,1.1953125 -1.79296,1.5703125 -0.75,0.375 -1.5879,0.5625 -2.50782,0.5625 -1.710935,0 -3.064451,-0.54199219 -4.054685,-1.6289063 -0.993164,-1.0927734 -1.488281,-2.6015625 -1.488281,-4.5234375 v -0.2109375 c 0,-1.8427734 0.492187,-3.3164062 1.476562,-4.4179687 0.984375,-1.101563 2.332032,-1.652344 4.042974,-1.652344 1.5,0 2.70117,0.427735 3.60937,1.277344 0.90527,0.852539 1.36523,1.9892578 1.38281,3.4101562 h -3 c -0.0176,-0.6240234 -0.21093,-1.1279296 -0.58593,-1.5117187 -0.36915,-0.3896484 -0.85254,-0.5859375 -1.45313,-0.5859375 -0.75,0 -1.318359,0.2753906 -1.699219,0.8203125 -0.375,0.5390625 -0.5625,1.4179687 -0.5625,2.6367187 V -5.82495 c 0,1.2275391 0.1875,2.1152344 0.5625,2.6601562 0.375,0.5390625 0.949219,0.8085938 1.722659,0.8085938 z m 22.20117,-1.875 c 0,-0.6328125 -0.22266,-1.1162109 -0.66797,-1.453125 -0.43945,-0.3339844 -1.23633,-0.6855469 -2.39062,-1.0546875 -1.15723,-0.375 -2.07129,-0.7441406 -2.74219,-1.1132813 -1.82813,-0.984375 -2.74219,-2.3144532 -2.74219,-3.9960942 0,-0.873046 0.24609,-1.652343 0.73828,-2.332031 0.49219,-0.685547 1.19531,-1.221679 2.10938,-1.605469 0.91992,-0.380859 1.95703,-0.574218 3.10547,-0.574218 1.14843,0 2.17089,0.210937 3.07031,0.632812 0.90527,0.416016 1.6084,1.004883 2.10937,1.769531 0.49805,0.75879 0.75,1.623047 0.75,2.589844 h -3.32812 c 0,-0.741211 -0.23438,-1.315429 -0.70313,-1.722656 -0.46289,-0.413086 -1.11328,-0.621094 -1.95703,-0.621094 -0.81445,0 -1.44726,0.172852 -1.89844,0.515625 -0.44531,0.345703 -0.66796,0.796875 -0.66796,1.359375 0,0.524414 0.26074,0.966797 0.78515,1.324219 0.53028,0.351562 1.30664,0.6855469 2.33203,0.9960937 1.88965,0.5625 3.26953,1.265625 4.13672,2.109375 0.86719,0.84375 1.30078,1.8955079 1.30078,3.1523438 0,1.4003906 -0.5332,2.4960937 -1.59375,3.29296875 -1.05468,0.79101562 -2.47851,1.18359375 -4.26562,1.18359375 -1.24219,0 -2.37598,-0.22558594 -3.39844,-0.6796875 -1.0166,-0.45117188 -1.79297,-1.0722656 -2.33203,-1.8632813 -0.5332,-0.796875 -0.79688,-1.7138671 -0.79688,-2.7539062 h 3.33985 c 0,1.78125 1.06055,2.671875 3.1875,2.671875 0.79687,0 1.41211,-0.1582031 1.85156,-0.4804688 0.44531,-0.328125 0.66797,-0.7763671 0.66797,-1.3476562 z m 13.13379,3.0117187 c -0.79102,0.96093755 -1.88379,1.4414063 -3.28125,1.4414063 -1.28906,0 -2.27344,-0.36621094 -2.95313,-1.1015625 -0.67382,-0.7412109 -1.0166,-1.828125 -1.03125,-3.2578125 v -7.851563 h 3.21094 v 7.7460942 c 0,1.2509766 0.56543,1.875 1.69922,1.875 1.08398,0 1.83105,-0.3779296 2.23828,-1.1367187 v -8.4843755 h 3.22266 V -7.3125e-4 h -3.02344 z m 16.87793,-4.6640625 c 0,1.8457032 -0.42188,3.3251954 -1.26563,4.4414063 -0.83789,1.11035156 -1.96582,1.6640625 -3.38672,1.6640625 -1.21289,0 -2.1914,-0.421875 -2.9414,-1.265625 v 5.6484375 h -3.19922 V -11.989013 h 2.96484 l 0.11719,1.171875 c 0.77344,-0.92871 1.78418,-1.394531 3.03516,-1.394531 1.47656,0 2.625,0.547852 3.44531,1.640625 0.82031,1.0957034 1.23047,2.6015627 1.23047,4.5234377 z m -3.19922,-0.234375 c 0,-1.1162109 -0.19922,-1.9746093 -0.59766,-2.578125 -0.39258,-0.609375 -0.96679,-0.9140625 -1.72265,-0.9140625 -1.00196,0 -1.69336,0.3837891 -2.07422,1.1484375 v 4.9101563 c 0.38965,0.796875 1.08984,1.1953125 2.09765,1.1953125 1.5293,0 2.29688,-1.2539063 2.29688,-3.7617188 z m 16.54687,0.234375 c 0,1.8457032 -0.42187,3.3251954 -1.26562,4.4414063 -0.83789,1.11035156 -1.96582,1.6640625 -3.38672,1.6640625 -1.21289,0 -2.19141,-0.421875 -2.94141,-1.265625 v 5.6484375 h -3.19921 V -11.989013 h 2.96484 l 0.11719,1.171875 c 0.77343,-0.92871 1.78418,-1.394531 3.03515,-1.394531 1.47657,0 2.625,0.547852 3.44532,1.640625 0.82031,1.0957034 1.23046,2.6015627 1.23046,4.5234377 z m -3.19921,-0.234375 c 0,-1.1162109 -0.19922,-1.9746093 -0.59766,-2.578125 -0.39258,-0.609375 -0.9668,-0.9140625 -1.72266,-0.9140625 -1.00195,0 -1.69336,0.3837891 -2.07422,1.1484375 v 4.9101563 c 0.38965,0.796875 1.08985,1.1953125 2.09766,1.1953125 1.5293,0 2.29688,-1.2539063 2.29688,-3.7617188 z m 5.25,0.011719 c 0,-1.1865234 0.22851,-2.2441406 0.6914,-3.1757813 0.45996,-0.9374999 1.11914,-1.6582029 1.98047,-2.1679689 0.8584,-0.506836 1.85742,-0.761719 3,-0.761719 1.61719,0 2.93555,0.498047 3.96094,1.488281 1.02246,0.9843757 1.59375,2.3291023 1.71094,4.0312507 l 0.0234,0.8203125 c 0,1.8369141 -0.51562,3.3134766 -1.54687,4.4296875 -1.02539,1.11035156 -2.40235,1.6640625 -4.13672,1.6640625 -1.72852,0 -3.10547,-0.55371094 -4.13672,-1.6640625 -1.03125,-1.1074219 -1.54687,-2.6162109 -1.54687,-4.5234375 z m 3.21093,0.234375 c 0,1.1337891 0.21094,2.0039062 0.63282,2.6132812 0.42773,0.6035157 1.04589,0.9023438 1.85156,0.9023438 0.77344,0 1.37695,-0.2958984 1.8164,-0.890625 0.43653,-0.6005859 0.65625,-1.5527344 0.65625,-2.859375 0,-1.1162109 -0.21972,-1.9804688 -0.65625,-2.5898438 -0.43945,-0.6152343 -1.05175,-0.9257812 -1.83984,-0.9257812 -0.79102,0 -1.40039,0.3046875 -1.82812,0.9140625 -0.42188,0.609375 -0.63282,1.5556641 -0.63282,2.8359375 z m 17.42285,-3.1171875 c -0.43945,-0.061523 -0.82031,-0.09375 -1.14843,-0.09375 -1.21289,0 -2.00977,0.4101562 -2.39063,1.2304687 v 7.85156255 h -3.19922 V -11.989013 h 3.02344 l 0.0937,1.429688 c 0.63867,-1.101563 1.5293,-1.652344 2.67188,-1.652344 0.35156,0 0.68261,0.04687 0.99609,0.140625 z m 6.49512,-5.9531257 v 2.953125 h 2.05078 v 2.3437507 h -2.05078 v 5.9882812 c 0,0.4453125 0.085,0.7675782 0.25781,0.9609375 0.16993,0.1875 0.49512,0.28125 0.97266,0.28125 0.35742,0 0.67383,-0.026367 0.94922,-0.082031 v 2.42578125 c -0.63281,0.19335937 -1.2832,0.29296875 -1.94531,0.29296875 -2.24414,0 -3.38672,-1.13085938 -3.4336,-3.3984375 v -6.46875 h -1.75781 v -2.3437509 h 1.75781 v -2.953125 z m 23.50488,9.5625007 c -0.12597,1.7431641 -0.76757,3.1142578 -1.92187,4.1132812 -1.15723,0.99316411 -2.68066,1.4882813 -4.57031,1.4882813 -2.07129,0 -3.7002,-0.69433594 -4.88672,-2.0859375 C 205.8648,-3.2614734 205.273,-5.1745594 205.273,-7.6062 v -0.984375 c 0,-1.552734 0.27246,-2.920898 0.82031,-4.101563 0.54492,-1.177734 1.32715,-2.085937 2.34375,-2.71875 1.01367,-0.632812 2.19727,-0.949218 3.55078,-0.949218 1.85742,0 3.35449,0.500976 4.48828,1.5 1.13965,0.993164 1.79883,2.390625 1.98047,4.195312 h -3.32812 c -0.0791,-1.037109 -0.36914,-1.792969 -0.86719,-2.261719 -0.50098,-0.46875 -1.25977,-0.703125 -2.27344,-0.703125 -1.11035,0 -1.94238,0.398438 -2.49609,1.195313 -0.54785,0.791016 -0.8291,2.021484 -0.84375,3.6914062 v 1.21875 c 0,1.7431641 0.26074,3.0175782 0.78515,3.8203125 0.53028,0.8056641 1.36524,1.2070313 2.50782,1.2070313 1.02246,0 1.78711,-0.234375 2.29687,-0.703125 0.50684,-0.46875 0.79688,-1.1953125 0.86719,-2.1796875 z m 8.05372,5.6015625 c -1.75782,0 -3.19336,-0.5390625 -4.30079,-1.6171875 -1.10156,-1.078125 -1.65234,-2.5136719 -1.65234,-4.3125 v -0.3164063 c 0,-1.2011718 0.22852,-2.2763671 0.69141,-3.2226562 0.46875,-0.9521482 1.12793,-1.6816412 1.98047,-2.1914062 0.85839,-0.515625 1.83398,-0.773438 2.92968,-0.773438 1.64063,0 2.92969,0.521485 3.86719,1.558594 0.94336,1.0312502 1.41797,2.4960939 1.41797,4.3945314 v 1.3007813 h -7.64063 c 0.0996,0.7822266 0.41309,1.4121094 0.9375,1.8867187 0.52149,0.4775391 1.1836,0.7148438 1.98047,0.7148438 1.2334,0 2.19727,-0.4482422 2.89453,-1.3476563 l 1.57032,1.7578125 c -0.47754,0.6796875 -1.125,1.21289067 -1.94532,1.59375005 -0.82031,0.38085937 -1.73144,0.57421875 -2.73046,0.57421875 z m -0.36329,-9.84375 c -0.6416,0 -1.16015,0.2167969 -1.55859,0.6445312 -0.39258,0.4306641 -0.6416,1.0429688 -0.75,1.8398438 h 4.45313 v -0.2578125 c -0.0176,-0.7089844 -0.20801,-1.2568359 -0.57422,-1.640625 -0.36914,-0.3896484 -0.89063,-0.5859375 -1.57032,-0.5859375 z m 10.63477,-2.3671882 0.0937,1.382813 c 0.8584,-1.069336 2.00684,-1.605469 3.44531,-1.605469 1.27149,0 2.21778,0.375 2.83594,1.125 0.62402,0.744141 0.94336,1.8574223 0.96094,3.3398442 V -7.3105e-4 H 240.8833 V -7.6647938 c 0,-0.6855468 -0.14941,-1.1835937 -0.44531,-1.4882812 -0.29004,-0.3046875 -0.7793,-0.4570313 -1.46485,-0.4570313 -0.9082,0 -1.58203,0.3837891 -2.02734,1.1484375 v 8.46093755 h -3.21094 V -11.989013 Z m 14.15918,-2.953125 v 2.953125 h 2.05078 v 2.3437507 h -2.05078 v 5.9882812 c 0,0.4453125 0.085,0.7675782 0.25781,0.9609375 0.16992,0.1875 0.49512,0.28125 0.97266,0.28125 0.35742,0 0.67383,-0.026367 0.94922,-0.082031 v 2.42578125 C 252.4644,0.12231562 251.81401,0.221925 251.1519,0.221925 c -2.24414,0 -3.38671,-1.13085938 -3.43359,-3.3984375 v -6.46875 h -1.75781 v -2.3437505 h 1.75781 v -2.953125 z m 9.92578,15.1640632 c -1.75781,0 -3.19336,-0.5390625 -4.30078,-1.6171875 -1.10156,-1.078125 -1.65234,-2.5136719 -1.65234,-4.3125 v -0.3164063 c 0,-1.2011718 0.22851,-2.2763671 0.6914,-3.2226562 0.46875,-0.9521482 1.12793,-1.6816412 1.98047,-2.1914062 0.8584,-0.515625 1.83399,-0.773438 2.92969,-0.773438 1.64062,0 2.92969,0.521485 3.86719,1.558594 0.94336,1.0312502 1.41796,2.4960939 1.41796,4.3945314 v 1.3007813 h -7.64062 c 0.0996,0.7822266 0.41309,1.4121094 0.9375,1.8867187 0.52148,0.4775391 1.18359,0.7148438 1.98047,0.7148438 1.2334,0 2.19726,-0.4482422 2.89453,-1.3476563 l 1.57031,1.7578125 c -0.47754,0.6796875 -1.125,1.21289067 -1.94531,1.59375005 -0.82031,0.38085937 -1.73145,0.57421875 -2.73047,0.57421875 z m -0.36328,-9.84375 c -0.6416,0 -1.16016,0.2167969 -1.55859,0.6445312 -0.39258,0.4306641 -0.64161,1.0429688 -0.75,1.8398438 h 4.45312 v -0.2578125 c -0.0176,-0.7089844 -0.20801,-1.2568359 -0.57422,-1.640625 -0.36914,-0.3896484 -0.89062,-0.5859375 -1.57031,-0.5859375 z m 14.41992,0.6328125 c -0.43945,-0.061523 -0.82031,-0.09375 -1.14844,-0.09375 -1.21289,0 -2.00976,0.4101562 -2.39062,1.2304687 v 7.85156255 h -3.19922 V -11.989013 h 3.02344 l 0.0937,1.429688 c 0.63867,-1.101563 1.52929,-1.652344 2.67187,-1.652344 0.35157,0 0.68262,0.04687 0.9961,0.140625 z m 0,0"
         style="fill:#231f20;fill-opacity:1;fill-rule:nonzero;stroke:none"
         aria-label="Academic Support Center"
         transform="matrix(1.3333333,0,0,1.3333333,83.9472,319.8916)" /></g></g></svg>
