<?xml version="1.0" encoding="UTF-8" standalone="no"?>
<!-- Created with Inkscape (http://www.inkscape.org/) -->

<svg
   width="60.000374mm"
   height="6.5742273mm"
   viewBox="0 0 60.000374 6.5742273"
   version="1.1"
   id="svg1"
   xml:space="preserve"
   xmlns:inkscape="http://www.inkscape.org/namespaces/inkscape"
   xmlns:sodipodi="http://sodipodi.sourceforge.net/DTD/sodipodi-0.dtd"
   xmlns="http://www.w3.org/2000/svg"
   xmlns:svg="http://www.w3.org/2000/svg"><sodipodi:namedview
     id="namedview1"
     pagecolor="#ffffff"
     bordercolor="#000000"
     borderopacity="0.25"
     inkscape:showpageshadow="2"
     inkscape:pageopacity="0.0"
     inkscape:pagecheckerboard="0"
     inkscape:deskcolor="#d1d1d1"
     inkscape:document-units="mm"><inkscape:page
       x="0"
       y="0"
       width="60.000374"
       height="6.5742273"
       id="page2"
       margin="0"
       bleed="0" /></sodipodi:namedview><defs
     id="defs1" /><g
     inkscape:label="Layer 1"
     inkscape:groupmode="layer"
     id="layer1"
     transform="translate(-52.751569,-72.307518)"><g
       id="layer-MC0"
       inkscape:label="Layer 1"
       transform="matrix(0.26458333,0,0,0.26458334,45.178135,62.31092)"><path
         id="path1"
         d="m 69.815,20.762 h 0.84 v 15.454 h -0.84 z"
         style="fill:#4f4c4d;fill-opacity:1;fill-rule:nonzero;stroke:none"
         transform="matrix(1.3333333,0,0,-1.3333333,0,88)" /><path
         id="path2"
         d="M 0,0 H 4.601 L 2.255,6.304 Z m 3.394,8.695 5.465,-14.248 1.367,-0.269 v -0.936 h -5.17 v 0.936 l 1.413,0.111 0.158,0.319 -1.639,4.344 h -5.377 l -1.614,-4.344 0.229,-0.319 1.481,-0.111 V -6.758 H -4.76 v 0.936 l 1.322,0.269 5.331,14.248 z"
         style="fill:#b23428;fill-opacity:1;fill-rule:nonzero;stroke:none"
         transform="matrix(1.3333333,0,0,-1.3333333,34.970667,51.308)" /><path
         id="path3"
         d="m 0,0 v -0.905 l -1.412,-0.137 -0.389,-0.315 v -8.194 c 0,-3.077 1.165,-4.5 4.052,-4.5 2.898,0 4.057,1.423 4.057,4.5 v 8.034 L 5.876,-1.11 4.512,-0.905 V 0 H 9.315 V -0.905 L 7.946,-1.11 7.538,-1.517 v -8.238 c 0,-1.65 -0.113,-2.916 -1,-3.979 -0.867,-1.039 -2.531,-1.72 -4.716,-1.72 -2.188,0 -3.85,0.681 -4.714,1.72 -0.866,1.04 -1.004,2.308 -1.004,3.979 v 8.398 l -0.386,0.315 -1.297,0.137 V 0 Z"
         style="fill:#b23428;fill-opacity:1;fill-rule:nonzero;stroke:none"
         transform="matrix(1.3333333,0,0,-1.3333333,56.526667,39.712933)" /><path
         id="path4"
         d="m 0,0 h 1.343 l 0.272,-2.555 0.294,-0.382 c 0.663,-0.331 1.53,-0.508 2.554,-0.508 2.209,0 3.439,1.086 3.439,2.665 0,0.824 -0.228,1.378 -0.773,1.802 -0.868,0.668 -1.941,1.024 -3.031,1.489 -2.532,1.068 -3.85,1.888 -3.85,4.05 0,2.51 2.026,4.266 5.26,4.266 1.254,0 2.531,-0.202 3.875,-0.623 V 6.757 H 8.198 L 7.855,8.868 7.513,9.247 C 6.944,9.558 6.261,9.713 5.463,9.713 3.525,9.713 2.369,8.647 2.369,7.023 2.369,5.536 3.46,4.979 5.557,4.112 6.741,3.621 7.945,3.265 8.992,2.289 c 0.66,-0.625 1.006,-1.47 1.006,-2.447 0,-2.621 -2.258,-4.468 -5.9,-4.468 -1.644,0 -3.031,0.267 -4.098,0.713 z"
         style="fill:#b23428;fill-opacity:1;fill-rule:nonzero;stroke:none"
         transform="matrix(1.3333333,0,0,-1.3333333,71.986267,54.1504)" /><path
         id="path5"
         d="M 0,0 H 1.605 L 0.787,2.202 Z M 1.186,3.038 3.092,-1.938 3.568,-2.034 V -2.36 H 1.766 v 0.326 l 0.49,0.042 0.057,0.109 -0.571,1.52 h -1.875 l -0.566,-1.52 0.08,-0.109 0.516,-0.042 V -2.36 H -1.66 v 0.326 l 0.459,0.096 1.861,4.976 z"
         style="fill:#4f4c4d;fill-opacity:1;fill-rule:nonzero;stroke:none"
         transform="matrix(1.3333333,0,0,-1.3333333,104.18947,57.1764)" /><path
         id="path6"
         d="m 0,0 c 0.629,0 1.024,-0.423 1.024,-1.21 v -2.239 l 0.134,-0.129 0.423,-0.039 v -0.287 h -1.733 v 0.287 l 0.373,0.039 0.142,0.129 v 2.103 c 0,0.557 -0.22,0.82 -0.716,0.82 -0.252,0 -0.545,-0.089 -0.897,-0.263 v -2.66 l 0.145,-0.129 0.374,-0.039 v -0.287 h -1.693 v 0.287 l 0.381,0.039 0.135,0.129 v 2.103 c 0,0.557 -0.223,0.82 -0.699,0.82 -0.263,0 -0.563,-0.089 -0.905,-0.263 v -2.66 l 0.135,-0.129 0.379,-0.039 v -0.287 h -1.74 v 0.287 l 0.43,0.039 0.136,0.129 v 2.876 h -0.566 v 0.246 l 0.922,0.285 h 0.304 V -0.478 C -2.988,-0.168 -2.576,0 -2.242,0 -1.854,0 -1.551,-0.184 -1.368,-0.533 -0.773,-0.184 -0.318,0 0,0"
         style="fill:#4f4c4d;fill-opacity:1;fill-rule:nonzero;stroke:none"
         transform="matrix(1.3333333,0,0,-1.3333333,115.78587,55.117867)" /><path
         id="path7"
         d="m 0,0 c 0,0.637 -0.309,0.987 -0.82,0.987 -0.539,0 -0.975,-0.445 -1.026,-1.122 h 1.838 C -0.008,-0.085 0,-0.039 0,0 m 0.699,-2.152 c -0.476,-0.318 -0.992,-0.477 -1.495,-0.477 -1.05,0 -1.772,0.788 -1.772,1.955 0,1.192 0.773,2.02 1.839,2.02 0.874,0 1.428,-0.59 1.428,-1.559 0,-0.088 0,-0.168 -0.007,-0.254 h -2.575 v -0.089 c 0,-1.017 0.531,-1.621 1.332,-1.621 0.4,0 0.788,0.161 1.25,0.463 z"
         style="fill:#4f4c4d;fill-opacity:1;fill-rule:nonzero;stroke:none"
         transform="matrix(1.3333333,0,0,-1.3333333,122.22067,56.912133)" /><path
         id="path8"
         d="M 0,0 0.421,0.039 0.558,0.168 V 3.044 H 0 V 3.29 L 0.925,3.575 H 1.226 V 2.828 c 0.275,0.287 0.563,0.541 0.849,0.773 0.065,0.016 0.135,0.016 0.199,0.016 0.159,0 0.31,-0.032 0.477,-0.103 V 2.828 H 2.497 C 2.385,2.966 2.259,3.02 2.089,3.02 1.829,3.02 1.551,2.822 1.226,2.439 V 0.168 L 1.36,0.039 1.917,0 V -0.287 H 0 Z"
         style="fill:#4f4c4d;fill-opacity:1;fill-rule:nonzero;stroke:none"
         transform="matrix(1.3333333,0,0,-1.3333333,124.24547,59.9408)" /><path
         id="path9"
         d="m 0,0 c 0,-0.253 -0.203,-0.454 -0.459,-0.454 -0.256,0 -0.462,0.201 -0.462,0.454 0,0.254 0.206,0.462 0.462,0.462 C -0.203,0.462 0,0.254 0,0 m -0.182,-1.305 v -3.407 l 0.135,-0.129 0.429,-0.039 v -0.287 h -1.788 v 0.287 l 0.421,0.039 0.134,0.129 v 2.876 h -0.555 v 0.246 l 0.914,0.285 z"
         style="fill:#4f4c4d;fill-opacity:1;fill-rule:nonzero;stroke:none"
         transform="matrix(1.3333333,0,0,-1.3333333,130.54107,53.434267)" /><path
         id="path10"
         d="m 0,0 c -1.081,0 -1.789,0.794 -1.789,1.971 0,1.184 0.772,1.988 1.885,1.988 0.764,0 1.192,-0.311 1.192,-0.771 0,-0.248 -0.182,-0.421 -0.42,-0.421 -0.146,0 -0.263,0.032 -0.383,0.11 V 3.528 C 0.366,3.601 0.238,3.641 0.103,3.641 c -0.683,0 -1.166,-0.622 -1.166,-1.614 0,-0.976 0.523,-1.557 1.349,-1.557 0.342,0 0.667,0.11 1.009,0.333 V 0.391 C 0.86,0.135 0.428,0 0,0"
         style="fill:#4f4c4d;fill-opacity:1;fill-rule:nonzero;stroke:none"
         transform="matrix(1.3333333,0,0,-1.3333333,134.35747,60.396533)" /><path
         id="path11"
         d="m 0,0 c -1.104,-0.302 -1.623,-0.534 -1.623,-1.081 0,-0.413 0.231,-0.676 0.639,-0.676 0.261,0 0.585,0.126 0.984,0.358 z m -1.303,-2.187 c -0.629,0 -1.017,0.423 -1.017,1.018 0,0.818 0.73,1.065 2.32,1.446 V 0.53 C 0,1.157 -0.158,1.424 -0.732,1.424 -0.923,1.424 -1.12,1.38 -1.334,1.295 V 0.627 h -0.549 c -0.183,0 -0.246,0.055 -0.246,0.246 0,0.485 0.606,0.899 1.604,0.899 0.834,0 1.193,-0.342 1.193,-1.145 V -1.677 L 0.804,-1.806 1.225,-1.845 V -2.132 H 0.104 L 0,-1.668 c -0.5,-0.345 -0.912,-0.519 -1.303,-0.519"
         style="fill:#4f4c4d;fill-opacity:1;fill-rule:nonzero;stroke:none"
         transform="matrix(1.3333333,0,0,-1.3333333,140.166,57.481067)" /><path
         id="path12"
         d="M 0,0 0.428,0.039 0.564,0.168 V 3.044 H 0 V 3.29 L 0.922,3.575 H 1.225 V 3.14 c 0.533,0.294 0.937,0.477 1.279,0.477 0.689,0 1.074,-0.414 1.074,-1.21 V 0.168 L 3.711,0.039 4.141,0 V -0.287 H 2.4 V 0 l 0.381,0.039 0.135,0.129 v 2.103 c 0,0.582 -0.213,0.82 -0.803,0.82 -0.254,0 -0.554,-0.093 -0.888,-0.263 V 0.168 L 1.361,0.039 1.74,0 V -0.287 H 0 Z"
         style="fill:#4f4c4d;fill-opacity:1;fill-rule:nonzero;stroke:none"
         transform="matrix(1.3333333,0,0,-1.3333333,142.63733,59.9408)" /><path
         id="path13"
         d="m 0,0 v -0.317 l -0.495,-0.047 -0.134,-0.114 v -2.874 c 0,-1.082 0.404,-1.582 1.414,-1.582 1.01,0 1.414,0.5 1.414,1.582 v 2.821 l -0.15,0.142 -0.477,0.072 V 0 H 3.248 V -0.317 L 2.773,-0.389 2.628,-0.531 v -2.892 c 0,-0.582 -0.039,-1.027 -0.35,-1.4 -0.299,-0.367 -0.88,-0.606 -1.644,-0.606 -0.763,0 -1.343,0.239 -1.646,0.606 -0.302,0.365 -0.349,0.809 -0.349,1.4 v 2.945 l -0.135,0.114 -0.453,0.047 V 0 Z"
         style="fill:#4f4c4d;fill-opacity:1;fill-rule:nonzero;stroke:none"
         transform="matrix(1.3333333,0,0,-1.3333333,154.78587,53.212933)" /><path
         id="path14"
         d="M 0,0 0.432,0.039 0.566,0.168 V 3.044 H 0 V 3.29 L 0.924,3.575 H 1.227 V 3.14 c 0.531,0.294 0.935,0.477 1.279,0.477 0.689,0 1.07,-0.414 1.07,-1.21 V 0.168 L 3.715,0.039 4.143,0 V -0.287 H 2.4 V 0 L 2.783,0.039 2.92,0.168 v 2.103 c 0,0.582 -0.217,0.82 -0.805,0.82 -0.252,0 -0.556,-0.093 -0.888,-0.263 V 0.168 L 1.361,0.039 1.742,0 V -0.287 H 0 Z"
         style="fill:#4f4c4d;fill-opacity:1;fill-rule:nonzero;stroke:none"
         transform="matrix(1.3333333,0,0,-1.3333333,159.91347,59.9408)" /><path
         id="path15"
         d="m 0,0 c 0,-0.253 -0.205,-0.454 -0.459,-0.454 -0.256,0 -0.461,0.201 -0.461,0.454 0,0.254 0.205,0.462 0.461,0.462 C -0.205,0.462 0,0.254 0,0 m -0.182,-1.305 v -3.407 l 0.137,-0.129 0.428,-0.039 v -0.287 h -1.789 v 0.287 l 0.422,0.039 0.134,0.129 v 2.876 h -0.556 v 0.246 l 0.914,0.285 z"
         style="fill:#4f4c4d;fill-opacity:1;fill-rule:nonzero;stroke:none"
         transform="matrix(1.3333333,0,0,-1.3333333,168.1816,53.434267)" /><path
         id="path16"
         d="m 0,0 v -0.292 l -0.422,-0.032 -0.096,-0.127 0.93,-2.6 1.018,2.6 -0.061,0.127 -0.431,0.032 V 0 H 2.346 V -0.292 L 1.877,-0.356 0.484,-3.822 H 0.043 l -1.283,3.481 -0.483,0.049 V 0 Z"
         style="fill:#4f4c4d;fill-opacity:1;fill-rule:nonzero;stroke:none"
         transform="matrix(1.3333333,0,0,-1.3333333,171.46813,55.2272)" /><path
         id="path17"
         d="m 0,0 c 0,0.637 -0.309,0.987 -0.816,0.987 -0.545,0 -0.979,-0.445 -1.026,-1.122 h 1.834 C -0.008,-0.085 0,-0.039 0,0 m 0.699,-2.152 c -0.476,-0.318 -0.994,-0.477 -1.492,-0.477 -1.049,0 -1.773,0.788 -1.773,1.955 0,1.192 0.771,2.02 1.836,2.02 0.873,0 1.429,-0.59 1.429,-1.559 0,-0.088 0,-0.168 -0.008,-0.254 h -2.576 v -0.089 c 0,-1.017 0.535,-1.621 1.336,-1.621 0.399,0 0.789,0.161 1.248,0.463 z"
         style="fill:#4f4c4d;fill-opacity:1;fill-rule:nonzero;stroke:none"
         transform="matrix(1.3333333,0,0,-1.3333333,178.59053,56.912133)" /><path
         id="path18"
         d="M 0,0 0.422,0.039 0.557,0.168 V 3.044 H 0 V 3.29 L 0.924,3.575 H 1.225 V 2.828 c 0.279,0.287 0.562,0.541 0.851,0.773 0.065,0.016 0.131,0.016 0.197,0.016 0.159,0 0.311,-0.032 0.477,-0.103 V 2.828 H 2.494 C 2.385,2.966 2.256,3.02 2.092,3.02 1.828,3.02 1.549,2.822 1.225,2.439 V 0.168 L 1.361,0.039 1.914,0 V -0.287 H 0 Z"
         style="fill:#4f4c4d;fill-opacity:1;fill-rule:nonzero;stroke:none"
         transform="matrix(1.3333333,0,0,-1.3333333,180.61653,59.9408)" /><path
         id="path19"
         d="m 0,0 h -0.391 l -0.062,0.564 c -0.207,0.111 -0.399,0.166 -0.59,0.166 -0.42,0 -0.658,-0.215 -0.658,-0.571 0,-0.342 0.23,-0.51 0.676,-0.723 0.287,-0.135 0.586,-0.246 0.849,-0.462 0.192,-0.15 0.293,-0.388 0.293,-0.684 0,-0.739 -0.545,-1.191 -1.484,-1.191 -0.397,0 -0.746,0.063 -1.033,0.167 v 1.035 h 0.38 l 0.096,-0.677 c 0.223,-0.129 0.453,-0.184 0.709,-0.184 0.42,0 0.715,0.263 0.715,0.639 0,0.409 -0.285,0.554 -0.811,0.791 -0.677,0.302 -1.027,0.557 -1.027,1.09 0,0.699 0.502,1.113 1.408,1.113 0.352,0 0.662,-0.056 0.93,-0.177 z"
         style="fill:#4f4c4d;fill-opacity:1;fill-rule:nonzero;stroke:none"
         transform="matrix(1.3333333,0,0,-1.3333333,188.31187,56.5488)" /><path
         id="path20"
         d="m 0,0 c 0,-0.253 -0.205,-0.454 -0.461,-0.454 -0.252,0 -0.457,0.201 -0.457,0.454 0,0.254 0.205,0.462 0.457,0.462 C -0.205,0.462 0,0.254 0,0 m -0.18,-1.305 v -3.407 l 0.135,-0.129 0.428,-0.039 v -0.287 h -1.789 v 0.287 l 0.42,0.039 0.138,0.129 v 2.876 h -0.558 v 0.246 l 0.916,0.285 z"
         style="fill:#4f4c4d;fill-opacity:1;fill-rule:nonzero;stroke:none"
         transform="matrix(1.3333333,0,0,-1.3333333,191.46813,53.434267)" /><path
         id="path21"
         d="m 0,0 v 0.248 l 0.525,0.229 0.344,0.74 H 1.16 V 0.375 H 2.367 V 0 H 1.16 v -2.097 c 0,-0.602 0.104,-0.867 0.66,-0.867 0.182,0 0.368,0.025 0.547,0.065 v -0.294 c -0.373,-0.12 -0.73,-0.174 -1.041,-0.174 -0.656,0 -0.824,0.237 -0.824,0.803 V 0 Z"
         style="fill:#4f4c4d;fill-opacity:1;fill-rule:nonzero;stroke:none"
         transform="matrix(1.3333333,0,0,-1.3333333,192.77533,55.862667)" /><path
         id="path22"
         d="m 0,0 v -0.292 l -0.42,-0.032 -0.096,-0.127 0.952,-2.472 0.996,2.472 -0.067,0.127 -0.427,0.032 V 0 H 2.352 V -0.292 L 1.891,-0.356 0.303,-4.217 c -0.375,-0.898 -0.758,-1.335 -1.274,-1.335 -0.334,0 -0.547,0.181 -0.547,0.443 0,0.16 0.073,0.303 0.207,0.428 l 0.762,-0.299 c 0.217,0.23 0.445,0.626 0.643,1.191 l -1.334,3.448 -0.485,0.049 V 0 Z"
         style="fill:#4f4c4d;fill-opacity:1;fill-rule:nonzero;stroke:none"
         transform="matrix(1.3333333,0,0,-1.3333333,198.65827,55.2272)" /><path
         id="path23"
         d="m 0,0 c 0,-1.023 0.465,-1.645 1.098,-1.645 0.64,0 1.105,0.612 1.105,1.645 0,1.025 -0.465,1.64 -1.105,1.64 C 0.453,1.64 0,1.035 0,0 m 2.949,0 c 0,-1.177 -0.787,-1.986 -1.851,-1.986 -1.067,0 -1.844,0.809 -1.844,1.986 0,1.185 0.769,1.988 1.844,1.988 1.074,0 1.851,-0.81 1.851,-1.988"
         style="fill:#4f4c4d;fill-opacity:1;fill-rule:nonzero;stroke:none"
         transform="matrix(1.3333333,0,0,-1.3333333,206.58533,57.768933)" /><path
         id="path24"
         d="M 0,0 0.418,0.039 0.564,0.168 V 3.059 H 0.055 v 0.255 l 0.509,0.12 V 3.52 c 0,1.318 0.674,2.107 1.614,2.107 0.367,0 0.617,-0.2 0.617,-0.455 0,-0.198 -0.117,-0.338 -0.324,-0.395 L 1.748,5.254 C 1.406,5.095 1.232,4.688 1.232,4.014 V 3.434 H 2.336 V 3.059 H 1.223 V 0.168 L 1.359,0.039 1.852,0 V -0.287 H 0 Z"
         style="fill:#4f4c4d;fill-opacity:1;fill-rule:nonzero;stroke:none"
         transform="matrix(1.3333333,0,0,-1.3333333,211.5384,59.9408)" /><path
         id="path25"
         d="M 0,0 H 0.463 L 0.561,-0.913 0.664,-1.05 c 0.232,-0.119 0.533,-0.183 0.893,-0.183 0.769,0 1.199,0.391 1.199,0.954 0,0.294 -0.082,0.493 -0.272,0.643 C 2.184,0.604 1.809,0.73 1.428,0.898 0.545,1.28 0.084,1.573 0.084,2.345 c 0,0.897 0.709,1.523 1.836,1.523 0.434,0 0.881,-0.07 1.35,-0.221 V 2.414 H 2.857 L 2.738,3.169 2.619,3.306 C 2.422,3.416 2.184,3.473 1.904,3.473 1.229,3.473 0.822,3.091 0.822,2.512 0.822,1.978 1.203,1.778 1.934,1.468 2.35,1.295 2.77,1.167 3.137,0.817 3.365,0.597 3.486,0.292 3.486,-0.057 3.486,-0.994 2.699,-1.655 1.428,-1.655 0.854,-1.655 0.371,-1.56 0,-1.398 Z"
         style="fill:#4f4c4d;fill-opacity:1;fill-rule:nonzero;stroke:none"
         transform="matrix(1.3333333,0,0,-1.3333333,218.85547,58.244133)" /><path
         id="path26"
         d="m 0,0 v -2.423 c 0.535,0.294 0.947,0.478 1.289,0.478 0.69,0 1.072,-0.414 1.072,-1.21 v -2.24 l 0.137,-0.128 0.42,-0.04 V -5.85 H 1.186 v 0.287 l 0.375,0.04 0.132,0.128 v 2.104 c 0,0.581 -0.214,0.819 -0.8,0.819 C 0.637,-2.472 0.336,-2.564 0,-2.734 V -5.395 L 0.145,-5.523 0.52,-5.563 V -5.85 h -1.743 v 0.287 l 0.428,0.04 0.141,0.128 v 4.863 h -0.617 v 0.245 L -0.299,0 Z"
         style="fill:#4f4c4d;fill-opacity:1;fill-rule:nonzero;stroke:none"
         transform="matrix(1.3333333,0,0,-1.3333333,226.3216,52.524133)" /><path
         id="path27"
         d="m 0,0 c -1.104,-0.302 -1.623,-0.534 -1.623,-1.081 0,-0.413 0.229,-0.676 0.637,-0.676 0.26,0 0.586,0.126 0.986,0.358 z m -1.305,-2.187 c -0.627,0 -1.015,0.423 -1.015,1.018 0,0.818 0.728,1.065 2.32,1.446 V 0.53 c 0,0.627 -0.162,0.894 -0.732,0.894 -0.19,0 -0.389,-0.044 -0.604,-0.129 V 0.627 h -0.549 c -0.183,0 -0.242,0.055 -0.242,0.246 0,0.485 0.602,0.899 1.604,0.899 0.834,0 1.189,-0.342 1.189,-1.145 V -1.677 L 0.801,-1.806 1.223,-1.845 V -2.132 H 0.102 L 0,-1.668 c -0.5,-0.345 -0.914,-0.519 -1.305,-0.519"
         style="fill:#4f4c4d;fill-opacity:1;fill-rule:nonzero;stroke:none"
         transform="matrix(1.3333333,0,0,-1.3333333,234.26427,57.481067)" /><path
         id="path28"
         d="M 0,0 0.422,0.039 0.557,0.168 V 3.044 H 0 V 3.29 L 0.922,3.575 H 1.225 V 2.828 c 0.277,0.287 0.564,0.541 0.851,0.773 0.063,0.016 0.135,0.016 0.196,0.016 0.16,0 0.312,-0.032 0.478,-0.103 V 2.828 H 2.494 C 2.383,2.966 2.258,3.02 2.09,3.02 1.826,3.02 1.553,2.822 1.225,2.439 V 0.168 L 1.359,0.039 1.916,0 V -0.287 H 0 Z"
         style="fill:#4f4c4d;fill-opacity:1;fill-rule:nonzero;stroke:none"
         transform="matrix(1.3333333,0,0,-1.3333333,236.73307,59.9408)" /><path
         id="path29"
         d="m 0,0 c 0.254,0 0.461,-0.208 0.461,-0.462 0,-0.253 -0.207,-0.454 -0.461,-0.454 -0.254,0 -0.461,0.201 -0.461,0.454 C -0.461,-0.208 -0.254,0 0,0 m -0.854,-2.298 v 0.246 l 0.917,0.285 H 0.365 V -4.96 c 0,-0.818 -0.012,-1.407 -0.453,-1.882 -0.308,-0.336 -0.715,-0.516 -1.141,-0.516 -0.351,0 -0.55,0.172 -0.55,0.425 0,0.185 0.095,0.329 0.295,0.415 l 0.769,-0.469 c 0.293,0.096 0.422,0.5 0.422,1.232 v 3.457 z"
         style="fill:#4f4c4d;fill-opacity:1;fill-rule:nonzero;stroke:none"
         transform="matrix(1.3333333,0,0,-1.3333333,242.32947,52.8184)" /><path
         id="path30"
         d="m 0,0 c -1.104,-0.302 -1.621,-0.534 -1.621,-1.081 0,-0.413 0.23,-0.676 0.635,-0.676 0.261,0 0.59,0.126 0.986,0.358 z m -1.303,-2.187 c -0.627,0 -1.019,0.423 -1.019,1.018 0,0.818 0.732,1.065 2.322,1.446 V 0.53 c 0,0.627 -0.16,0.894 -0.73,0.894 -0.192,0 -0.389,-0.044 -0.604,-0.129 V 0.627 h -0.549 c -0.183,0 -0.248,0.055 -0.248,0.246 0,0.485 0.608,0.899 1.606,0.899 0.836,0 1.193,-0.342 1.193,-1.145 V -1.677 L 0.805,-1.806 1.223,-1.845 V -2.132 H 0.104 L 0,-1.668 c -0.5,-0.345 -0.912,-0.519 -1.303,-0.519"
         style="fill:#4f4c4d;fill-opacity:1;fill-rule:nonzero;stroke:none"
         transform="matrix(1.3333333,0,0,-1.3333333,247.4596,57.481067)" /><path
         id="path31"
         d="m 0,0 v -2.423 c 0.531,0.294 0.943,0.478 1.281,0.478 0.698,0 1.078,-0.414 1.078,-1.21 v -2.24 l 0.133,-0.128 0.422,-0.04 V -5.85 H 1.182 v 0.287 l 0.375,0.04 0.131,0.128 v 2.104 c 0,0.581 -0.211,0.819 -0.801,0.819 -0.254,0 -0.555,-0.092 -0.887,-0.262 v -2.661 l 0.141,-0.128 0.371,-0.04 V -5.85 h -1.74 v 0.287 l 0.431,0.04 0.133,0.128 v 4.863 h -0.609 v 0.245 L -0.303,0 Z"
         style="fill:#4f4c4d;fill-opacity:1;fill-rule:nonzero;stroke:none"
         transform="matrix(1.3333333,0,0,-1.3333333,251.51173,52.524133)" /><path
         id="path32"
         d="M 0,0 C 0.074,-0.075 0.131,-0.141 0.209,-0.218 H 0.24 L 0.584,0.114 C 0.619,0.152 0.652,0.181 0.681,0.206 L 0.688,0.293 C 0.631,0.371 0.557,0.451 0.467,0.532 0.377,0.614 0.305,0.671 0.203,0.699 0.18,0.699 0.168,0.689 0.086,0.612 0.048,0.573 0.008,0.531 -0.04,0.486 -0.091,0.436 -0.137,0.386 -0.175,0.338 -0.246,0.26 -0.246,0.24 -0.223,0.162 -0.147,0.125 -0.076,0.072 0,0"
         style="fill:#4f4c4d;fill-opacity:1;fill-rule:nonzero;stroke:none"
         transform="matrix(1.3333333,0,0,-1.3333333,103.85613,41.1804)" /><path
         id="path33"
         d="M 0,0 C 0.071,-0.075 0.133,-0.141 0.211,-0.218 H 0.26 L 0.582,0.113 C 0.617,0.15 0.652,0.181 0.68,0.206 L 0.688,0.293 C 0.631,0.371 0.559,0.451 0.468,0.532 0.375,0.618 0.305,0.671 0.203,0.699 0.185,0.699 0.168,0.694 0.099,0.626 L -0.037,0.487 C -0.09,0.436 -0.136,0.386 -0.174,0.338 -0.245,0.258 -0.245,0.244 -0.221,0.162 -0.146,0.125 -0.072,0.068 0,0"
         style="fill:#4f4c4d;fill-opacity:1;fill-rule:nonzero;stroke:none"
         transform="matrix(1.3333333,0,0,-1.3333333,102.6244,41.1804)" /><path
         id="path34"
         d="M 0,0 C 0.074,-0.075 0.133,-0.141 0.211,-0.218 H 0.258 L 0.585,0.114 C 0.619,0.152 0.653,0.181 0.682,0.206 L 0.688,0.293 C 0.627,0.375 0.555,0.457 0.471,0.533 0.381,0.612 0.309,0.67 0.205,0.699 0.182,0.699 0.166,0.688 0.102,0.626 L -0.035,0.486 C -0.088,0.436 -0.135,0.385 -0.173,0.338 -0.246,0.257 -0.246,0.244 -0.221,0.162 -0.146,0.125 -0.073,0.072 0,0"
         style="fill:#4f4c4d;fill-opacity:1;fill-rule:nonzero;stroke:none"
         transform="matrix(1.3333333,0,0,-1.3333333,111.24933,41.1804)" /><path
         id="path35"
         d="m 0,0 c -0.143,0.021 -0.26,0.053 -0.361,0.094 -0.102,0.039 -0.184,0.089 -0.246,0.148 -0.057,0.055 -0.084,0.112 -0.084,0.176 0,0.071 0.013,0.144 0.042,0.221 0.018,0.07 0.053,0.142 0.107,0.222 0.046,0.069 0.103,0.127 0.169,0.174 0.066,0.045 0.137,0.067 0.217,0.067 0.121,0 0.23,-0.034 0.324,-0.1 C 0.27,0.93 0.355,0.838 0.422,0.731 0.494,0.623 0.555,0.5 0.607,0.357 0.652,0.226 0.688,0.102 0.741,0.014 0.744,0.005 0.747,-0.005 0.748,-0.013 0.473,-0.049 0.232,-0.037 0,0 m -6.143,-0.731 c -0.168,-0.025 -0.536,-0.02 -0.718,0.02 -0.114,0.023 -0.202,0.053 -0.272,0.092 -0.081,0.039 -0.117,0.078 -0.131,0.097 -0.027,0.036 -0.032,0.059 -0.032,0.071 0,0.116 0.101,0.256 0.3,0.414 0.199,0.162 0.474,0.316 0.814,0.461 0.028,-0.233 0.053,-0.44 0.078,-0.62 0.022,-0.195 0.054,-0.374 0.114,-0.49 -0.043,-0.017 -0.094,-0.033 -0.153,-0.045 M 0.691,-0.67 C 0.663,-0.743 0.621,-0.805 0.56,-0.855 0.48,-0.921 0.359,-0.974 0.201,-1.012 c -0.174,-0.04 -0.39,-0.066 -0.625,-0.08 -0.26,-0.015 -0.574,-0.021 -0.947,-0.021 h -3.371 c -0.197,0 -0.356,0.027 -0.471,0.082 -0.113,0.051 -0.207,0.171 -0.278,0.352 -0.072,0.19 -0.128,0.462 -0.171,0.836 -0.043,0.366 -0.084,0.859 -0.117,1.479 L -5.867,1.684 -6.322,1.375 c 0.009,-0.054 0.024,-0.117 0.043,-0.188 0.015,-0.069 0.025,-0.126 0.052,-0.141 -0.488,-0.275 -0.855,-0.56 -1.086,-0.844 -0.236,-0.29 -0.355,-0.609 -0.355,-0.948 0,-0.189 0.082,-0.344 0.243,-0.461 0.191,-0.141 0.445,-0.23 0.792,-0.154 0.061,0.013 0.106,0.028 0.137,0.045 0.043,0.019 0.091,0.047 0.148,0.086 0.056,0.035 0.11,0.072 0.221,0.157 l 0.094,0.071 c 0.024,0.019 0.045,0.036 0.053,0.058 0.023,-0.112 0.056,-0.216 0.099,-0.315 0.047,-0.114 0.115,-0.218 0.205,-0.305 0.089,-0.085 0.196,-0.149 0.323,-0.198 0.125,-0.046 0.281,-0.07 0.461,-0.07 h 3.369 c 0.511,0 0.924,0.033 1.261,0.103 0.337,0.067 0.614,0.164 0.819,0.286 0.205,0.125 0.354,0.277 0.441,0.453 0.084,0.177 0.127,0.373 0.127,0.583 0,0.379 -0.032,0.708 -0.096,0.98 C 0.963,0.859 0.883,1.084 0.782,1.26 0.674,1.45 0.559,1.581 0.428,1.664 0.135,1.855 -0.168,1.831 -0.416,1.645 -0.545,1.546 -0.658,1.42 -0.748,1.271 -0.84,1.127 -0.91,0.961 -0.961,0.779 -1.01,0.598 -1.033,0.422 -1.033,0.261 c 0,-0.175 0.037,-0.319 0.115,-0.442 0.077,-0.117 0.184,-0.214 0.316,-0.285 0.125,-0.071 0.278,-0.123 0.464,-0.16 0.175,-0.034 0.366,-0.05 0.568,-0.05 l 0.207,0.006 z"
         style="fill:#4f4c4d;fill-opacity:1;fill-rule:nonzero;stroke:none"
         transform="matrix(1.3333333,0,0,-1.3333333,112.19987,44.779333)" /><path
         id="path36"
         d="m 0,0 c 0.074,-0.075 0.132,-0.141 0.211,-0.218 h 0.03 L 0.47,0 c 0.036,0.039 0.074,0.076 0.113,0.113 0.036,0.037 0.07,0.068 0.1,0.092 L 0.689,0.293 C 0.634,0.37 0.561,0.45 0.469,0.533 0.371,0.619 0.303,0.672 0.203,0.699 0.186,0.699 0.176,0.697 0.1,0.625 L -0.039,0.486 C -0.088,0.436 -0.133,0.386 -0.174,0.338 -0.244,0.257 -0.244,0.242 -0.221,0.162 -0.146,0.125 -0.073,0.072 0,0"
         style="fill:#4f4c4d;fill-opacity:1;fill-rule:nonzero;stroke:none"
         transform="matrix(1.3333333,0,0,-1.3333333,112.48107,41.1804)" /><path
         id="path37"
         d="M 0,0 C -0.057,0.127 -0.115,0.247 -0.175,0.353 -0.234,0.46 -0.288,0.535 -0.361,0.604 h -0.061 l -0.256,-0.626 -0.029,-0.09 c 0,-0.046 0.027,-0.1 0.078,-0.156 0.307,-0.379 0.464,-0.697 0.464,-0.946 0,-0.201 -0.046,-0.402 -0.136,-0.601 -0.09,-0.202 -0.225,-0.383 -0.413,-0.553 -0.188,-0.166 -0.428,-0.307 -0.714,-0.413 -0.286,-0.11 -0.631,-0.167 -1.066,-0.213 l -0.01,-0.081 0.033,-0.011 c 0.069,-0.024 0.143,-0.05 0.244,-0.081 l 0.192,-0.055 c 0.129,-0.036 0.262,-0.065 0.407,-0.091 0.148,-0.025 0.282,-0.039 0.411,-0.039 0.098,0 0.227,0.04 0.393,0.124 0.163,0.084 0.322,0.227 0.472,0.42 0.158,0.205 0.286,0.463 0.395,0.789 0.108,0.327 0.164,0.741 0.164,1.232 0,0.112 -0.02,0.238 -0.062,0.385 C 0.104,-0.265 0.055,-0.13 0,0"
         style="fill:#4f4c4d;fill-opacity:1;fill-rule:nonzero;stroke:none"
         transform="matrix(1.3333333,0,0,-1.3333333,116.48893,44.843067)" /><path
         id="path38"
         d="m 0,0 c 0.072,-0.072 0.131,-0.14 0.209,-0.215 h 0.047 l 0.099,0.1 c 0.035,0.038 0.07,0.075 0.131,0.134 L 0.604,0.137 C 0.633,0.164 0.656,0.188 0.68,0.209 L 0.688,0.295 C 0.63,0.373 0.559,0.451 0.469,0.535 0.377,0.617 0.306,0.671 0.201,0.703 0.185,0.703 0.176,0.703 0.103,0.627 0.057,0.584 0.011,0.538 -0.036,0.489 -0.09,0.438 -0.135,0.387 -0.176,0.338 -0.238,0.263 -0.246,0.252 -0.223,0.164 -0.146,0.127 -0.071,0.07 0,0"
         style="fill:#4f4c4d;fill-opacity:1;fill-rule:nonzero;stroke:none"
         transform="matrix(1.3333333,0,0,-1.3333333,131.16347,43.172533)" /><path
         id="path39"
         d="m 0,0 c 0.073,-0.072 0.133,-0.138 0.209,-0.212 h 0.047 l 0.099,0.098 c 0.034,0.037 0.072,0.077 0.11,0.115 L 0.583,0.118 C 0.619,0.155 0.652,0.187 0.682,0.212 L 0.688,0.298 C 0.633,0.374 0.559,0.454 0.469,0.538 0.373,0.623 0.305,0.675 0.202,0.704 c -0.013,0 -0.028,0 -0.099,-0.074 L -0.039,0.491 C -0.088,0.44 -0.134,0.391 -0.175,0.341 -0.238,0.265 -0.244,0.255 -0.222,0.167 -0.143,0.126 -0.068,0.07 0,0"
         style="fill:#4f4c4d;fill-opacity:1;fill-rule:nonzero;stroke:none"
         transform="matrix(1.3333333,0,0,-1.3333333,131.72333,41.9056)" /><path
         id="path40"
         d="m 0,0 c -0.052,-0.051 -0.098,-0.102 -0.139,-0.15 -0.069,-0.079 -0.069,-0.093 -0.045,-0.174 0.071,-0.035 0.143,-0.09 0.221,-0.164 0.073,-0.073 0.131,-0.14 0.209,-0.215 h 0.031 l 0.114,0.098 c 0.036,0.039 0.071,0.077 0.113,0.117 l 0.215,0.209 0.006,0.086 C 0.67,-0.117 0.598,-0.039 0.505,0.047 0.419,0.125 0.345,0.182 0.24,0.215 0.215,0.215 0.199,0.2 0.135,0.139 Z"
         style="fill:#4f4c4d;fill-opacity:1;fill-rule:nonzero;stroke:none"
         transform="matrix(1.3333333,0,0,-1.3333333,132.34573,42.521467)" /><path
         id="path41"
         d="M 0,0 C -0.004,0.1 -0.008,0.227 -0.016,0.378 L -0.082,2.07 0.164,2.744 C 0.066,2.784 -0.023,2.822 -0.105,2.861 -0.182,2.897 -0.25,2.945 -0.309,3.004 -0.363,3.058 -0.411,3.126 -0.451,3.205 -0.488,3.286 -0.514,3.39 -0.527,3.512 L -0.537,3.606 -0.602,3.535 C -0.691,3.436 -0.765,3.308 -0.814,3.157 -0.867,3.006 -0.893,2.879 -0.893,2.779 c 0,-0.085 0.018,-0.163 0.049,-0.232 0.035,-0.065 0.076,-0.121 0.117,-0.151 0.004,-0.028 0.014,-0.109 0.026,-0.242 l 0.045,-0.488 c 0.017,-0.189 0.033,-0.401 0.049,-0.629 l 0.084,-1.346 c 0.009,-0.209 0.013,-0.386 0.013,-0.529 0,-0.166 -0.013,-0.305 -0.039,-0.411 C -0.576,-1.351 -0.622,-1.428 -0.691,-1.484 -0.756,-1.54 -0.852,-1.58 -0.982,-1.605 -1.111,-1.632 -1.278,-1.641 -1.48,-1.641 h -2.534 c -0.246,0 -0.441,0.032 -0.579,0.094 -0.142,0.067 -0.253,0.152 -0.329,0.256 -0.08,0.105 -0.133,0.224 -0.162,0.353 -0.029,0.137 -0.053,0.27 -0.067,0.401 l -0.029,0.058 -0.106,-0.022 -0.011,-0.024 c -0.025,-0.047 -0.043,-0.112 -0.055,-0.194 -0.013,-0.082 -0.019,-0.175 -0.019,-0.276 0,-0.056 0.003,-0.113 0.006,-0.175 0.007,-0.058 0.018,-0.117 0.037,-0.15 -0.047,-0.079 -0.117,-0.155 -0.207,-0.223 -0.234,-0.175 -0.61,-0.107 -0.731,0.042 -0.081,0.095 -0.123,0.223 -0.123,0.378 0,0.088 0.01,0.168 0.028,0.245 0.023,0.105 0.047,0.155 0.063,0.181 l -0.003,0.053 -0.133,0.029 C -6.474,-0.644 -6.52,-0.699 -6.58,-0.791 -6.64,-0.883 -6.693,-1 -6.742,-1.14 -6.762,-1.19 -6.792,-1.245 -6.834,-1.301 -6.875,-1.354 -6.93,-1.408 -7,-1.465 c -0.069,-0.049 -0.154,-0.093 -0.254,-0.128 -0.257,-0.079 -0.627,-0.061 -0.82,0.066 -0.114,0.075 -0.169,0.211 -0.169,0.404 0,0.075 0.009,0.158 0.026,0.245 0.023,0.091 0.043,0.148 0.065,0.179 l -0.009,0.058 -0.127,0.026 C -8.327,-0.644 -8.373,-0.699 -8.435,-0.791 -8.489,-0.874 -8.541,-0.985 -8.598,-1.138 -8.619,-1.194 -8.65,-1.25 -8.688,-1.301 -8.73,-1.355 -8.791,-1.409 -8.87,-1.465 -8.947,-1.514 -9.05,-1.557 -9.176,-1.592 -9.305,-1.625 -9.463,-1.641 -9.646,-1.641 h -6.286 c -0.175,0 -0.314,0.026 -0.423,0.077 -0.106,0.051 -0.19,0.126 -0.253,0.229 -0.063,0.106 -0.105,0.235 -0.128,0.392 -0.025,0.156 -0.039,0.338 -0.039,0.541 v 0.164 c 0,0.054 0.004,0.111 0.009,0.172 0.008,0.164 0.016,0.334 0.016,0.504 v 0.5 c 0,0.289 -0.004,0.56 -0.008,0.818 -0.006,0.258 -0.013,0.486 -0.023,0.685 l -0.023,0.645 -0.028,0.071 c -0.02,0.026 -0.048,0.038 -0.082,0.038 L -16.996,3.16 c -0.016,-0.016 -0.042,-0.045 -0.078,-0.092 -0.03,-0.041 -0.067,-0.086 -0.109,-0.134 L -17.314,2.78 c -0.043,-0.05 -0.084,-0.092 -0.134,-0.18 0.032,-0.055 0.059,-0.161 0.087,-0.339 0.025,-0.167 0.045,-0.366 0.062,-0.589 0.018,-0.223 0.029,-0.461 0.039,-0.715 0.006,-0.25 0.01,-0.493 0.01,-0.723 v -1.191 c 0,-0.193 0.011,-0.373 0.035,-0.536 0.024,-0.167 0.074,-0.318 0.154,-0.446 0.082,-0.131 0.205,-0.235 0.36,-0.31 0.156,-0.073 0.365,-0.11 0.619,-0.11 h 6.287 c 0.211,0 0.393,0.019 0.54,0.057 0.147,0.038 0.271,0.089 0.37,0.149 0.102,0.059 0.186,0.124 0.248,0.192 0.037,0.041 0.074,0.082 0.106,0.122 0.063,-0.185 0.162,-0.318 0.298,-0.395 0.368,-0.204 0.8,-0.148 1.1,0.036 0.158,0.098 0.311,0.223 0.451,0.368 0.028,-0.091 0.061,-0.168 0.106,-0.23 0.053,-0.075 0.115,-0.135 0.189,-0.182 0.072,-0.047 0.141,-0.077 0.211,-0.093 0.192,-0.045 0.389,-0.025 0.53,0.034 0.089,0.039 0.173,0.091 0.246,0.153 0.076,0.066 0.136,0.13 0.216,0.234 0.03,0.037 0.057,0.072 0.053,0.107 0.179,-0.366 0.504,-0.552 0.966,-0.552 h 2.534 c 0.242,0 0.469,0.058 0.672,0.175 0.199,0.114 0.373,0.264 0.52,0.45 0.142,0.183 0.253,0.394 0.333,0.621 0.078,0.224 0.118,0.453 0.118,0.716 L 0.008,-0.291 C 0.006,-0.24 0.004,-0.17 0,0"
         style="fill:#4f4c4d;fill-opacity:1;fill-rule:nonzero;stroke:none"
         transform="matrix(1.3333333,0,0,-1.3333333,141.22067,44.076133)" /><path
         id="path42"
         d="M 0,0 C -0.08,0.038 -0.148,0.085 -0.203,0.14 -0.26,0.196 -0.309,0.268 -0.346,0.342 -0.383,0.421 -0.41,0.524 -0.424,0.649 L -0.436,0.743 -0.498,0.673 C -0.59,0.571 -0.66,0.442 -0.709,0.293 -0.762,0.144 -0.787,0.017 -0.787,-0.085 c 0,-0.088 0.024,-0.171 0.074,-0.245 0.043,-0.071 0.094,-0.134 0.135,-0.163 0.019,-0.191 0.041,-0.417 0.062,-0.682 0.024,-0.265 0.043,-0.542 0.063,-0.832 l 0.045,-0.874 c 0.011,-0.292 0.017,-0.557 0.017,-0.796 0,-0.391 -0.002,-0.724 -0.011,-1.004 -0.006,-0.278 -0.024,-0.48 -0.032,-0.648 l 0.051,-0.041 h 0.067 l 0.013,0.018 c 0.089,0.136 0.165,0.259 0.229,0.37 0.058,0.114 0.105,0.223 0.14,0.329 0.032,0.105 0.057,0.213 0.07,0.322 0.012,0.108 0.018,0.234 0.018,0.374 0,0.24 -0.002,0.503 -0.009,0.787 -0.009,0.282 -0.02,0.566 -0.032,0.853 L 0.021,-0.748 0.27,-0.12 C 0.17,-0.081 0.08,-0.038 0,0"
         style="fill:#4f4c4d;fill-opacity:1;fill-rule:nonzero;stroke:none"
         transform="matrix(1.3333333,0,0,-1.3333333,143.3744,40.189467)" /><path
         id="path43"
         d="M 0,0 C -0.021,0 -0.031,-0.01 -0.102,-0.078 L -0.24,-0.217 c -0.053,-0.05 -0.1,-0.099 -0.139,-0.149 -0.068,-0.08 -0.068,-0.091 -0.047,-0.175 0.074,-0.036 0.15,-0.092 0.223,-0.164 0.074,-0.074 0.131,-0.14 0.209,-0.215 h 0.053 l 0.013,0.017 c 0.016,0.018 0.043,0.046 0.094,0.096 l 0.213,0.218 c 0.037,0.038 0.066,0.068 0.096,0.089 l 0.009,0.091 C 0.43,-0.333 0.354,-0.254 0.265,-0.172 0.182,-0.094 0.107,-0.035 0,0"
         style="fill:#4f4c4d;fill-opacity:1;fill-rule:nonzero;stroke:none"
         transform="matrix(1.3333333,0,0,-1.3333333,149.10867,50.6856)" /><path
         id="path44"
         d="m 0,0 c -0.016,0 -0.027,-0.004 -0.1,-0.078 l -0.138,-0.139 c -0.052,-0.05 -0.099,-0.099 -0.137,-0.149 -0.068,-0.08 -0.072,-0.085 -0.047,-0.175 0.076,-0.039 0.152,-0.094 0.219,-0.164 0.074,-0.074 0.135,-0.139 0.211,-0.215 h 0.049 l 0.326,0.332 c 0.033,0.036 0.064,0.066 0.096,0.087 l 0.009,0.092 C 0.431,-0.333 0.357,-0.254 0.268,-0.172 0.178,-0.089 0.105,-0.035 0,0"
         style="fill:#4f4c4d;fill-opacity:1;fill-rule:nonzero;stroke:none"
         transform="matrix(1.3333333,0,0,-1.3333333,150.33787,50.6856)" /><path
         id="path45"
         d="m 0,0 c -0.145,0.021 -0.264,0.053 -0.364,0.094 -0.098,0.039 -0.181,0.088 -0.245,0.148 -0.055,0.055 -0.083,0.111 -0.083,0.176 0,0.065 0.012,0.139 0.04,0.219 0.023,0.08 0.058,0.154 0.107,0.224 0.048,0.069 0.106,0.127 0.173,0.176 0.063,0.043 0.134,0.065 0.214,0.065 0.122,0 0.23,-0.034 0.325,-0.1 C 0.266,0.931 0.352,0.839 0.422,0.731 0.496,0.616 0.559,0.489 0.605,0.355 0.651,0.226 0.688,0.104 0.741,0.015 0.742,0.006 0.746,-0.004 0.748,-0.013 0.469,-0.049 0.229,-0.038 0,0 M 0.695,-0.67 C 0.664,-0.747 0.623,-0.805 0.559,-0.855 0.479,-0.921 0.359,-0.974 0.201,-1.012 0.02,-1.052 -0.191,-1.078 -0.428,-1.092 -0.684,-1.107 -0.999,-1.113 -1.373,-1.113 h -3.879 l -0.211,-0.71 c 0.389,-0.127 0.662,-0.238 0.813,-0.329 0.138,-0.088 0.207,-0.168 0.207,-0.239 0,-0.056 -0.053,-0.134 -0.159,-0.228 -0.111,-0.098 -0.269,-0.192 -0.47,-0.278 -0.207,-0.088 -0.453,-0.164 -0.737,-0.226 -0.56,-0.12 -1.275,-0.137 -1.701,0.018 -0.215,0.076 -0.381,0.169 -0.506,0.285 -0.128,0.113 -0.216,0.24 -0.275,0.387 -0.054,0.146 -0.082,0.292 -0.082,0.435 0,0.162 0.014,0.32 0.041,0.477 0.025,0.154 0.061,0.279 0.088,0.422 -0.024,0.025 -0.059,0.053 -0.162,0.024 -0.018,-0.015 -0.045,-0.048 -0.094,-0.163 -0.037,-0.08 -0.072,-0.181 -0.107,-0.302 -0.039,-0.12 -0.067,-0.249 -0.096,-0.389 -0.029,-0.143 -0.043,-0.283 -0.043,-0.421 0,-0.078 0.006,-0.165 0.014,-0.315 0.007,-0.121 0.029,-0.245 0.065,-0.366 0.034,-0.129 0.093,-0.253 0.169,-0.368 0.078,-0.126 0.187,-0.237 0.328,-0.33 0.143,-0.094 0.314,-0.169 0.524,-0.228 0.207,-0.059 0.464,-0.088 0.761,-0.088 0.308,0 0.604,0.035 0.879,0.107 0.272,0.071 0.518,0.166 0.734,0.278 0.209,0.111 0.401,0.236 0.583,0.387 0.168,0.144 0.311,0.288 0.429,0.429 0.119,0.146 0.206,0.28 0.266,0.408 0.062,0.142 0.09,0.245 0.09,0.325 0,0.088 -0.02,0.163 -0.062,0.224 -0.014,0.02 -0.026,0.039 -0.042,0.055 h 2.486 c 0.504,0 0.928,0.035 1.26,0.103 0.338,0.068 0.614,0.164 0.818,0.286 0.206,0.127 0.355,0.277 0.44,0.453 0.084,0.177 0.127,0.373 0.127,0.583 0,0.384 -0.031,0.705 -0.094,0.98 C 0.967,0.847 0.885,1.076 0.781,1.26 0.671,1.451 0.555,1.584 0.424,1.664 0.125,1.859 -0.178,1.827 -0.416,1.645 -0.546,1.546 -0.66,1.42 -0.748,1.271 -0.845,1.121 -0.915,0.956 -0.961,0.779 -1.01,0.604 -1.035,0.43 -1.035,0.261 c 0,-0.167 0.039,-0.316 0.115,-0.442 0.079,-0.119 0.186,-0.215 0.318,-0.285 0.127,-0.073 0.278,-0.124 0.463,-0.16 0.173,-0.034 0.364,-0.05 0.567,-0.05 l 0.209,0.006 z"
         style="fill:#4f4c4d;fill-opacity:1;fill-rule:nonzero;stroke:none"
         transform="matrix(1.3333333,0,0,-1.3333333,158.60867,44.779333)" /><path
         id="path46"
         d="m 0,0 c 0.072,-0.075 0.133,-0.141 0.211,-0.218 h 0.051 l 0.093,0.101 C 0.389,-0.078 0.426,-0.042 0.467,0 L 0.58,0.113 C 0.619,0.15 0.65,0.181 0.68,0.205 L 0.688,0.293 C 0.635,0.368 0.561,0.448 0.469,0.532 0.367,0.625 0.303,0.672 0.203,0.699 c -0.014,0 -0.027,0 -0.101,-0.073 L -0.037,0.486 C -0.088,0.436 -0.135,0.386 -0.176,0.336 -0.24,0.26 -0.245,0.249 -0.222,0.162 -0.146,0.125 -0.074,0.071 0,0"
         style="fill:#4f4c4d;fill-opacity:1;fill-rule:nonzero;stroke:none"
         transform="matrix(1.3333333,0,0,-1.3333333,157.83787,41.1804)" /><path
         id="path47"
         d="m 0,0 c 0.074,-0.075 0.133,-0.141 0.213,-0.218 h 0.029 l 0.34,0.331 C 0.621,0.15 0.654,0.181 0.684,0.206 L 0.689,0.293 C 0.631,0.371 0.561,0.451 0.469,0.532 0.377,0.617 0.307,0.671 0.203,0.699 0.184,0.699 0.18,0.697 0.102,0.625 0.061,0.582 0.016,0.535 -0.037,0.486 -0.088,0.436 -0.135,0.386 -0.172,0.338 -0.244,0.26 -0.244,0.241 -0.221,0.162 -0.143,0.123 -0.07,0.068 0,0"
         style="fill:#4f4c4d;fill-opacity:1;fill-rule:nonzero;stroke:none"
         transform="matrix(1.3333333,0,0,-1.3333333,165.41347,41.1804)" /><path
         id="path48"
         d="m 0,0 c 0.074,-0.075 0.135,-0.141 0.213,-0.218 h 0.049 l 0.32,0.33 C 0.621,0.15 0.652,0.181 0.684,0.205 L 0.689,0.293 C 0.635,0.371 0.559,0.451 0.471,0.532 0.385,0.613 0.309,0.669 0.205,0.699 0.188,0.699 0.174,0.697 0.102,0.625 L -0.035,0.486 C -0.088,0.436 -0.133,0.386 -0.174,0.338 -0.24,0.257 -0.244,0.246 -0.221,0.162 -0.141,0.123 -0.068,0.068 0,0"
         style="fill:#4f4c4d;fill-opacity:1;fill-rule:nonzero;stroke:none"
         transform="matrix(1.3333333,0,0,-1.3333333,164.1816,41.1804)" /><path
         id="path49"
         d="m 0,0 c -0.086,0.079 -0.16,0.137 -0.266,0.168 -0.015,0 -0.027,0 -0.14,-0.114 L -0.51,-0.045 c -0.049,-0.051 -0.094,-0.101 -0.146,-0.165 -0.047,-0.058 -0.055,-0.07 -0.032,-0.161 0.077,-0.039 0.149,-0.094 0.219,-0.165 0.073,-0.072 0.131,-0.136 0.209,-0.212 h 0.051 l 0.012,0.012 c 0.019,0.019 0.047,0.049 0.082,0.088 0.033,0.036 0.072,0.072 0.115,0.114 l 0.111,0.115 c 0.039,0.038 0.073,0.067 0.102,0.094 l 0.008,0.086 C 0.162,-0.16 0.09,-0.082 0,0"
         style="fill:#4f4c4d;fill-opacity:1;fill-rule:nonzero;stroke:none"
         transform="matrix(1.3333333,0,0,-1.3333333,175.07227,48.422533)" /><path
         id="path50"
         d="m 0,0 c -0.086,0.082 -0.158,0.137 -0.264,0.168 -0.011,0 -0.027,0 -0.103,-0.075 -0.041,-0.043 -0.086,-0.089 -0.145,-0.147 -0.047,-0.048 -0.092,-0.095 -0.129,-0.141 -0.058,-0.067 -0.074,-0.082 -0.048,-0.176 0.074,-0.035 0.146,-0.088 0.224,-0.165 0.072,-0.072 0.131,-0.136 0.209,-0.212 h 0.049 l 0.324,0.33 c 0.037,0.038 0.069,0.068 0.1,0.093 l 0.006,0.086 C 0.162,-0.16 0.094,-0.082 0,0"
         style="fill:#4f4c4d;fill-opacity:1;fill-rule:nonzero;stroke:none"
         transform="matrix(1.3333333,0,0,-1.3333333,173.83787,48.422533)" /><path
         id="path51"
         d="m 0,0 c -0.168,-0.024 -0.537,-0.02 -0.721,0.021 -0.109,0.023 -0.201,0.052 -0.273,0.091 -0.057,0.03 -0.104,0.065 -0.131,0.097 -0.025,0.038 -0.029,0.06 -0.029,0.071 0,0.115 0.099,0.255 0.297,0.414 0.199,0.16 0.474,0.317 0.816,0.461 C -0.014,0.923 0.012,0.716 0.035,0.535 0.063,0.339 0.088,0.161 0.148,0.046 0.111,0.029 0.061,0.013 0,0 m 13.977,0.347 c 0,0.073 -0.02,0.188 -0.057,0.342 -0.039,0.16 -0.129,0.347 -0.268,0.558 C 13.586,1.349 13.5,1.46 13.4,1.585 13.295,1.708 13.182,1.836 13.061,1.974 12.938,2.107 12.807,2.245 12.668,2.39 l -0.227,0.237 -0.162,0.104 c -0.006,0.008 -0.011,0.016 -0.021,0.022 0.094,0.061 0.228,0.134 0.406,0.215 0.182,0.082 0.381,0.164 0.602,0.249 0.22,0.085 0.449,0.168 0.689,0.25 l 0.662,0.229 c 0.039,0.016 0.086,0.054 0.137,0.118 0.041,0.058 0.08,0.118 0.119,0.181 0.039,0.065 0.072,0.122 0.1,0.175 l 0.048,0.091 -0.07,0.09 C 14.717,4.298 14.457,4.231 14.184,4.146 13.908,4.06 13.633,3.966 13.367,3.863 13.098,3.761 12.848,3.658 12.621,3.554 12.393,3.452 12.207,3.36 12.059,3.274 12.025,3.249 11.994,3.206 11.951,3.128 11.914,3.06 11.883,2.986 11.852,2.909 11.82,2.829 11.795,2.75 11.775,2.677 11.752,2.593 11.742,2.531 11.742,2.485 11.742,2.437 11.764,2.376 11.805,2.3 11.84,2.228 11.883,2.157 11.932,2.089 11.975,2.021 12.021,1.958 12.063,1.902 12.107,1.845 12.135,1.813 12.146,1.801 l 0.077,0.005 0.019,0.071 0.006,0.009 c 0.127,-0.12 0.25,-0.244 0.357,-0.366 0.1,-0.106 0.19,-0.212 0.321,-0.359 0.084,-0.102 0.164,-0.205 0.248,-0.311 0.082,-0.109 0.154,-0.211 0.221,-0.313 0.064,-0.102 0.115,-0.195 0.154,-0.285 0.037,-0.09 0.055,-0.169 0.055,-0.237 0,-0.073 -0.03,-0.127 -0.09,-0.174 C 13.447,-0.21 13.33,-0.253 13.17,-0.288 13.006,-0.32 12.787,-0.346 12.518,-0.36 12.25,-0.376 11.916,-0.382 11.523,-0.382 H 7.654 c -0.31,0 -0.521,0.037 -0.648,0.113 -0.119,0.076 -0.178,0.208 -0.178,0.405 0,0.084 0.008,0.166 0.027,0.245 C 6.873,0.46 6.896,0.525 6.92,0.563 L 6.908,0.615 6.783,0.644 C 6.744,0.618 6.699,0.565 6.637,0.467 6.58,0.38 6.523,0.263 6.473,0.119 6.455,0.069 6.424,0.015 6.385,-0.042 6.338,-0.099 6.279,-0.151 6.201,-0.206 6.127,-0.255 6.021,-0.298 5.895,-0.333 5.766,-0.366 5.609,-0.382 5.426,-0.382 H 1.4 C 1.199,-0.382 1.047,-0.354 0.928,-0.3 0.814,-0.249 0.723,-0.133 0.648,0.053 0.576,0.243 0.521,0.516 0.479,0.889 0.434,1.255 0.396,1.747 0.361,2.367 L 0.275,2.415 -0.182,2.107 -0.141,1.917 c 0.02,-0.067 0.03,-0.127 0.057,-0.14 -0.49,-0.274 -0.857,-0.558 -1.088,-0.843 -0.236,-0.29 -0.355,-0.61 -0.355,-0.949 0,-0.189 0.082,-0.343 0.244,-0.461 0.187,-0.139 0.418,-0.23 0.793,-0.154 0.056,0.014 0.103,0.028 0.136,0.045 0.041,0.02 0.09,0.049 0.145,0.086 0.057,0.034 0.111,0.071 0.223,0.157 l 0.093,0.071 c 0.022,0.017 0.039,0.032 0.055,0.045 C 0.186,-0.329 0.219,-0.431 0.26,-0.528 0.309,-0.644 0.377,-0.745 0.463,-0.833 0.551,-0.915 0.656,-0.979 0.789,-1.03 0.916,-1.076 1.07,-1.101 1.25,-1.101 h 4.025 c 0.213,0 0.393,0.02 0.541,0.058 0.145,0.038 0.272,0.089 0.372,0.148 0.099,0.058 0.179,0.123 0.248,0.193 0.037,0.04 0.07,0.08 0.101,0.121 0.027,-0.086 0.065,-0.16 0.115,-0.223 0.071,-0.082 0.143,-0.138 0.231,-0.182 0.084,-0.044 0.181,-0.075 0.289,-0.09 0.105,-0.018 0.215,-0.025 0.334,-0.025 h 3.971 c 0.531,0 0.943,0.033 1.263,0.1 0.323,0.064 0.58,0.162 0.764,0.287 0.184,0.13 0.31,0.286 0.375,0.464 0.064,0.181 0.098,0.381 0.098,0.597"
         style="fill:#4f4c4d;fill-opacity:1;fill-rule:nonzero;stroke:none"
         transform="matrix(1.3333333,0,0,-1.3333333,165.57227,45.754533)" /><path
         id="path52"
         d="m 0,0 c -0.105,0.094 -0.168,0.14 -0.27,0.168 -0.015,0 -0.029,-0.004 -0.099,-0.074 l -0.139,-0.139 c -0.051,-0.051 -0.097,-0.101 -0.166,-0.185 -0.033,-0.04 -0.041,-0.05 -0.017,-0.141 0.074,-0.037 0.146,-0.092 0.22,-0.165 0.076,-0.072 0.133,-0.136 0.211,-0.212 h 0.045 l 0.012,0.012 c 0.023,0.019 0.051,0.048 0.086,0.088 0.035,0.035 0.07,0.072 0.158,0.159 l 0.068,0.071 c 0.037,0.037 0.071,0.066 0.102,0.093 l 0.008,0.086 C 0.16,-0.162 0.086,-0.082 0,0"
         style="fill:#4f4c4d;fill-opacity:1;fill-rule:nonzero;stroke:none"
         transform="matrix(1.3333333,0,0,-1.3333333,194.38733,48.422533)" /><path
         id="path53"
         d="m 0,0 c -0.102,0.094 -0.166,0.14 -0.266,0.168 -0.017,0 -0.031,-0.004 -0.099,-0.074 l -0.139,-0.139 c -0.053,-0.051 -0.098,-0.101 -0.168,-0.185 -0.031,-0.04 -0.041,-0.05 -0.017,-0.141 0.074,-0.037 0.146,-0.092 0.222,-0.165 0.074,-0.072 0.131,-0.136 0.209,-0.212 h 0.045 l 0.012,0.012 c 0.023,0.019 0.051,0.048 0.086,0.088 0.035,0.035 0.072,0.072 0.16,0.159 l 0.066,0.071 c 0.037,0.037 0.071,0.066 0.102,0.093 l 0.008,0.086 C 0.162,-0.162 0.088,-0.082 0,0"
         style="fill:#4f4c4d;fill-opacity:1;fill-rule:nonzero;stroke:none"
         transform="matrix(1.3333333,0,0,-1.3333333,193.15293,48.422533)" /><path
         id="path54"
         d="m 0,0 c -0.107,-0.037 -0.268,-0.031 -0.492,0.017 -0.123,0.025 -0.244,0.066 -0.367,0.118 -0.12,0.049 -0.237,0.112 -0.35,0.187 -0.105,0.075 -0.193,0.164 -0.26,0.224 0.088,0.207 0.19,0.363 0.311,0.477 0.109,0.11 0.238,0.165 0.381,0.165 0.084,0 0.172,-0.036 0.265,-0.112 C -0.414,1 -0.324,0.902 -0.242,0.788 -0.158,0.667 -0.09,0.542 -0.035,0.407 0.016,0.274 0.043,0.152 0,0 M 0.111,1.386 C 0.012,1.511 -0.104,1.616 -0.236,1.701 -0.367,1.786 -0.5,1.829 -0.635,1.829 -0.68,1.829 -0.738,1.819 -0.818,1.8 -0.902,1.78 -0.99,1.736 -1.084,1.667 -1.182,1.597 -1.283,1.494 -1.385,1.362 -1.492,1.227 -1.596,1.044 -1.695,0.819 -1.76,0.674 -1.832,0.543 -1.902,0.445 -1.975,0.354 -2.043,0.282 -2.107,0.233 -2.17,0.184 -2.232,0.152 -2.289,0.136 -2.344,0.12 -2.389,0.112 -2.438,0.112 h -3.166 c -0.308,0 -0.529,0.038 -0.65,0.114 -0.119,0.075 -0.178,0.211 -0.178,0.404 0,0.075 0.008,0.158 0.028,0.245 0.019,0.088 0.041,0.147 0.062,0.181 V 1.112 L -6.477,1.138 C -6.518,1.109 -6.563,1.054 -6.625,0.962 -6.68,0.879 -6.73,0.768 -6.787,0.614 -6.807,0.562 -6.838,0.507 -6.877,0.452 -6.918,0.399 -6.979,0.345 -7.057,0.29 -7.133,0.239 -7.236,0.196 -7.365,0.161 -7.492,0.128 -7.65,0.112 -7.834,0.112 h -3.049 c -0.107,0 -0.201,0.021 -0.281,0.063 -0.076,0.039 -0.152,0.107 -0.221,0.205 -0.074,0.101 -0.15,0.23 -0.224,0.387 -0.077,0.156 -0.162,0.346 -0.295,0.595 h -0.065 l -0.279,-0.631 -0.02,-0.063 0.073,-0.122 c 0.175,-0.246 0.291,-0.44 0.341,-0.572 0.051,-0.137 0.075,-0.243 0.075,-0.327 0,-0.103 -0.041,-0.231 -0.121,-0.384 -0.08,-0.156 -0.209,-0.309 -0.383,-0.457 -0.186,-0.153 -0.418,-0.284 -0.696,-0.393 -0.289,-0.115 -0.638,-0.18 -1.084,-0.226 l -0.017,-0.084 0.037,-0.011 c 0.07,-0.026 0.145,-0.048 0.217,-0.07 l 0.215,-0.06 c 0.127,-0.035 0.259,-0.064 0.402,-0.09 0.145,-0.025 0.279,-0.037 0.404,-0.037 0.094,0 0.207,0.027 0.354,0.088 0.137,0.061 0.271,0.161 0.406,0.303 0.131,0.139 0.254,0.324 0.379,0.566 0.103,0.214 0.184,0.478 0.236,0.783 0.039,-0.042 0.088,-0.078 0.145,-0.109 0.086,-0.044 0.16,-0.055 0.24,-0.072 h 3.061 c 0.213,0 0.392,0.019 0.541,0.057 0.148,0.038 0.271,0.089 0.369,0.149 0.101,0.059 0.183,0.124 0.248,0.192 0.039,0.041 0.072,0.081 0.105,0.122 0.03,-0.091 0.067,-0.165 0.114,-0.222 0.064,-0.077 0.136,-0.136 0.226,-0.185 0.092,-0.045 0.188,-0.074 0.295,-0.089 0.1,-0.018 0.215,-0.024 0.332,-0.024 h 3.166 c 0.233,0 0.426,0.062 0.567,0.189 0.111,0.096 0.193,0.213 0.236,0.352 0.014,0.019 0.029,0.039 0.039,0.058 l 0.004,0.006 c 0.224,-0.23 0.476,-0.398 0.742,-0.497 0.27,-0.102 0.531,-0.152 0.777,-0.152 0.065,0 0.135,0.041 0.211,0.122 0.075,0.075 0.145,0.168 0.213,0.28 0.069,0.112 0.127,0.233 0.176,0.361 0.047,0.128 0.072,0.249 0.072,0.361 0,0.159 -0.029,0.315 -0.092,0.477 -0.06,0.161 -0.142,0.303 -0.246,0.435"
         style="fill:#4f4c4d;fill-opacity:1;fill-rule:nonzero;stroke:none"
         transform="matrix(1.3333333,0,0,-1.3333333,202.5644,46.413467)" /><path
         id="path55"
         d="m 0,0 c 0.016,-0.042 0.031,-0.083 0.043,-0.176 0,-0.001 -0.012,-0.028 -0.125,-0.087 -0.092,-0.05 -0.262,-0.073 -0.508,-0.073 H -0.9 c -0.032,0 -0.069,0.001 -0.102,0.002 0.148,0.1 0.283,0.205 0.397,0.318 0.125,0.122 0.246,0.26 0.365,0.418 C -0.182,0.318 -0.129,0.244 -0.094,0.186 -0.051,0.111 -0.02,0.051 0,0 M 0.439,3.799 C 0.385,3.906 0.334,4.014 0.287,4.125 0.238,4.232 0.199,4.33 0.146,4.478 0.127,4.527 0.115,4.561 0.111,4.578 L 0.045,4.604 -0.303,4.319 C -0.348,4.281 -0.375,4.242 -0.385,4.198 -0.396,4.157 -0.4,4.12 -0.4,4.076 c 0,-0.105 0.004,-0.129 0.005,-0.129 v 0.002 c 0.032,-0.206 0.061,-0.393 0.092,-0.563 0.032,-0.168 0.055,-0.333 0.08,-0.49 0.02,-0.156 0.041,-0.311 0.055,-0.463 0.016,-0.151 0.023,-0.311 0.023,-0.48 0,-0.148 -0.013,-0.291 -0.039,-0.432 C -0.207,1.408 -0.236,1.302 -0.271,1.197 -0.5,1.514 -0.801,1.889 -1.17,2.311 -1.566,2.767 -2.061,3.288 -2.709,3.916 H -2.781 L -2.904,3.684 C -2.934,3.628 -2.959,3.574 -2.984,3.525 -3.021,3.446 -3.021,3.425 -3.021,3.417 -3.021,3.386 -3,3.329 -2.959,3.248 -2.924,3.168 -2.881,3.08 -2.832,2.983 L -2.74,2.809 c 0.029,-0.058 0.066,-0.122 0.099,-0.192 l 0.059,-0.006 0.016,0.047 c -0.002,0.004 -0.002,0.006 -0.006,0.01 l 0.013,0.027 -0.004,-0.015 0.012,0.031 0.033,0.073 C -1.986,2.305 -1.553,1.889 -1.227,1.547 -0.902,1.211 -0.646,0.928 -0.471,0.751 -0.561,0.588 -0.658,0.441 -0.768,0.307 -0.873,0.174 -0.98,0.063 -1.088,-0.027 -1.199,-0.124 -1.297,-0.193 -1.385,-0.24 c -0.09,-0.051 -0.16,-0.074 -0.219,-0.074 h -0.113 c -0.041,0.001 -0.076,0.001 -0.164,-0.038 l 0.07,-0.658 0.604,-0.029 c 0.191,0 0.346,0.006 0.461,0.014 0.117,0.005 0.236,0.025 0.363,0.055 0.102,0.029 0.194,0.075 0.279,0.148 0.088,0.075 0.161,0.162 0.219,0.254 0.067,0.111 0.114,0.213 0.141,0.312 0.035,0.106 0.051,0.214 0.051,0.332 0,0.142 -0.102,0.38 -0.313,0.687 0.125,0.225 0.223,0.468 0.295,0.727 0.066,0.259 0.1,0.535 0.1,0.845 0,0.19 -0.004,0.376 -0.012,0.554 C 0.367,3.043 0.342,3.213 0.285,3.373 0.281,3.399 0.279,3.421 0.277,3.447 0.313,3.439 0.35,3.435 0.395,3.435 L 0.596,3.456 0.633,3.529 0.613,3.551 C 0.555,3.611 0.498,3.691 0.439,3.799"
         style="fill:#4f4c4d;fill-opacity:1;fill-rule:nonzero;stroke:none"
         transform="matrix(1.3333333,0,0,-1.3333333,207.2988,45.836533)" /><path
         id="path56"
         d="M 0,0 0.023,0.256 -0.061,0.307 C -0.143,0.268 -0.227,0.234 -0.307,0.21 -0.443,0.167 -0.678,0.149 -0.822,0.234 c -0.065,0.034 -0.096,0.09 -0.096,0.176 0,0.053 0.014,0.098 0.037,0.134 0.026,0.04 0.055,0.074 0.086,0.097 0.041,0.027 0.078,0.045 0.117,0.054 0.17,0.043 0.319,0.004 0.481,-0.055 0.051,0.073 0.076,0.153 0.076,0.242 0,0.085 -0.037,0.143 -0.108,0.175 C -0.404,1.135 -0.582,1.099 -0.742,0.997 -0.844,0.936 -0.934,0.86 -1.018,0.769 -1.1,0.676 -1.164,0.582 -1.213,0.485 -1.262,0.385 -1.287,0.297 -1.287,0.223 c 0,-0.104 0.029,-0.184 0.082,-0.239 0.031,-0.033 0.064,-0.06 0.101,-0.084 L -1.23,-0.168 C -1.301,-0.211 -1.346,-0.281 -1.355,-0.365 -1.371,-0.447 -1.381,-0.51 -1.381,-0.55 v -0.069 l 0.485,0.239 c 0.123,0.056 0.263,0.116 0.417,0.181 C -0.328,-0.135 -0.178,-0.08 0,0"
         style="fill:#4f4c4d;fill-opacity:1;fill-rule:nonzero;stroke:none"
         transform="matrix(1.3333333,0,0,-1.3333333,204.4264,39.248)" /><path
         id="path57"
         d="M 0,0 C -0.08,0.038 -0.148,0.085 -0.201,0.14 -0.256,0.196 -0.307,0.268 -0.342,0.343 -0.383,0.424 -0.41,0.526 -0.422,0.648 L -0.43,0.745 -0.496,0.673 C -0.584,0.577 -0.652,0.454 -0.709,0.293 -0.762,0.13 -0.787,0.011 -0.787,-0.085 c 0,-0.088 0.027,-0.171 0.076,-0.245 0.041,-0.067 0.09,-0.131 0.135,-0.164 0.017,-0.171 0.039,-0.374 0.066,-0.681 0.022,-0.265 0.039,-0.541 0.057,-0.834 0.017,-0.289 0.033,-0.578 0.045,-0.873 0.013,-0.291 0.019,-0.556 0.019,-0.795 0,-0.391 -0.004,-0.724 -0.011,-1.004 -0.008,-0.302 -0.022,-0.489 -0.032,-0.648 l 0.047,-0.041 h 0.071 l 0.013,0.018 c 0.09,0.136 0.162,0.259 0.227,0.37 0.06,0.114 0.111,0.223 0.14,0.329 0.036,0.103 0.057,0.211 0.071,0.322 0.013,0.108 0.017,0.234 0.017,0.374 0,0.24 -0.002,0.503 -0.009,0.787 -0.008,0.273 -0.018,0.547 -0.03,0.853 -0.013,0.285 -0.027,0.562 -0.043,0.837 l -0.047,0.732 0.229,0.588 0.002,0.001 0.015,0.039 C 0.172,-0.081 0.082,-0.038 0,0"
         style="fill:#4f4c4d;fill-opacity:1;fill-rule:nonzero;stroke:none"
         transform="matrix(1.3333333,0,0,-1.3333333,210.02533,40.189467)" /><path
         id="path58"
         d="M 0,0 C 0.072,-0.075 0.133,-0.141 0.213,-0.218 H 0.242 L 0.584,0.114 C 0.619,0.15 0.652,0.181 0.68,0.205 L 0.688,0.293 C 0.627,0.379 0.555,0.457 0.469,0.532 0.373,0.618 0.305,0.672 0.205,0.699 0.184,0.699 0.168,0.689 0.102,0.626 L -0.037,0.486 C -0.088,0.436 -0.135,0.385 -0.172,0.339 -0.246,0.26 -0.246,0.241 -0.221,0.162 -0.146,0.125 -0.074,0.072 0,0"
         style="fill:#4f4c4d;fill-opacity:1;fill-rule:nonzero;stroke:none"
         transform="matrix(1.3333333,0,0,-1.3333333,214.24933,41.1804)" /><path
         id="path59"
         d="M 0,0 C 0.074,-0.075 0.133,-0.141 0.213,-0.218 H 0.242 L 0.584,0.114 C 0.619,0.15 0.652,0.181 0.682,0.205 L 0.688,0.293 C 0.627,0.379 0.555,0.457 0.469,0.532 0.373,0.618 0.305,0.672 0.205,0.699 0.184,0.699 0.168,0.689 0.102,0.626 L -0.035,0.486 C -0.088,0.436 -0.137,0.385 -0.174,0.339 -0.246,0.26 -0.246,0.241 -0.221,0.162 -0.146,0.125 -0.074,0.072 0,0"
         style="fill:#4f4c4d;fill-opacity:1;fill-rule:nonzero;stroke:none"
         transform="matrix(1.3333333,0,0,-1.3333333,215.48107,41.1804)" /><path
         id="path60"
         d="m 0,0 c -0.111,-0.038 -0.271,-0.031 -0.492,0.017 -0.123,0.025 -0.246,0.066 -0.369,0.117 -0.121,0.051 -0.239,0.115 -0.35,0.188 -0.107,0.075 -0.195,0.165 -0.258,0.224 0.088,0.206 0.19,0.362 0.307,0.476 0.111,0.111 0.242,0.166 0.385,0.166 0.084,0 0.173,-0.039 0.265,-0.112 C -0.416,1 -0.328,0.905 -0.244,0.787 -0.16,0.669 -0.094,0.546 -0.039,0.406 0.016,0.278 0.041,0.157 0,0 m -6.928,0.503 c -0.115,0.069 -0.218,0.148 -0.302,0.238 -0.086,0.09 -0.168,0.179 -0.237,0.272 -0.066,0.09 -0.133,0.181 -0.189,0.273 -0.057,0.079 -0.115,0.143 -0.178,0.161 -0.004,0.005 -0.01,0.013 -0.014,0.017 0.047,0.017 0.102,0.038 0.166,0.057 0.067,0.017 0.139,0.037 0.217,0.051 0.076,0.014 0.153,0.027 0.227,0.036 0.074,0.01 0.14,0.015 0.207,0.015 0.125,0 0.242,-0.015 0.336,-0.04 0.084,-0.023 0.152,-0.059 0.201,-0.097 0.047,-0.038 0.08,-0.082 0.098,-0.121 0.015,-0.052 0.023,-0.1 0.023,-0.141 0,-0.112 -0.051,-0.235 -0.152,-0.368 C -6.629,0.72 -6.775,0.604 -6.928,0.503 m -6.835,-0.009 c -0.166,-0.023 -0.531,-0.019 -0.721,0.021 -0.113,0.023 -0.203,0.052 -0.269,0.091 -0.08,0.04 -0.12,0.079 -0.133,0.096 -0.022,0.033 -0.031,0.057 -0.031,0.072 0,0.116 0.101,0.255 0.3,0.414 0.198,0.161 0.473,0.317 0.815,0.461 l 0.074,-0.621 c 0.027,-0.195 0.057,-0.373 0.113,-0.488 -0.037,-0.018 -0.09,-0.033 -0.148,-0.046 M 0.111,1.386 C 0.008,1.513 -0.107,1.616 -0.238,1.701 -0.369,1.786 -0.502,1.829 -0.639,1.829 -0.682,1.829 -0.742,1.819 -0.816,1.8 -0.9,1.781 -0.988,1.739 -1.086,1.667 -1.184,1.598 -1.283,1.495 -1.389,1.362 -1.49,1.23 -1.594,1.048 -1.697,0.819 -1.771,0.657 -1.836,0.534 -1.902,0.445 -1.978,0.353 -2.043,0.282 -2.105,0.233 -2.174,0.183 -2.232,0.152 -2.287,0.136 -2.342,0.12 -2.393,0.112 -2.437,0.112 h -2.68 c -0.367,0 -0.658,0.018 -0.885,0.055 -0.158,0.025 -0.297,0.056 -0.43,0.078 -0.052,0.019 -0.113,0.027 -0.164,0.048 0.241,0.198 0.438,0.399 0.588,0.601 0.153,0.209 0.227,0.416 0.227,0.638 0,0.094 -0.016,0.184 -0.047,0.27 C -5.859,1.893 -5.918,1.972 -6,2.042 -6.072,2.108 -6.178,2.163 -6.322,2.209 -6.533,2.274 -6.859,2.302 -7.244,2.229 -7.391,2.202 -7.537,2.167 -7.68,2.131 L -8.084,2.021 C -8.211,1.987 -8.316,1.962 -8.43,1.924 L -8.594,1.46 -8.604,1.442 -8.603,1.44 -8.615,1.401 c 0.094,-0.03 0.177,-0.085 0.254,-0.17 0.084,-0.087 0.166,-0.192 0.246,-0.31 0.084,-0.12 0.17,-0.246 0.265,-0.379 C -7.771,0.431 -7.674,0.333 -7.557,0.276 -7.545,0.264 -7.535,0.25 -7.523,0.239 -7.6,0.217 -7.678,0.198 -7.766,0.183 -7.853,0.165 -7.951,0.15 -8.053,0.14 -8.164,0.13 -8.283,0.122 -8.424,0.118 -8.566,0.114 -8.728,0.112 -8.918,0.112 h -3.445 c -0.197,0 -0.349,0.028 -0.472,0.082 -0.114,0.053 -0.207,0.171 -0.278,0.353 -0.072,0.198 -0.133,0.479 -0.174,0.836 -0.041,0.366 -0.078,0.858 -0.115,1.479 l -0.086,0.047 -0.455,-0.307 c 0.01,-0.055 0.024,-0.119 0.041,-0.19 0.016,-0.068 0.026,-0.126 0.053,-0.141 -0.483,-0.272 -0.852,-0.556 -1.086,-0.843 -0.234,-0.287 -0.354,-0.607 -0.354,-0.949 0,-0.189 0.082,-0.343 0.243,-0.46 0.191,-0.142 0.474,-0.229 0.793,-0.155 0.056,0.014 0.103,0.028 0.136,0.045 0.041,0.02 0.094,0.049 0.149,0.084 0.054,0.036 0.109,0.073 0.166,0.115 l 0.146,0.116 c 0.028,0.02 0.051,0.039 0.053,0.069 0.027,-0.122 0.059,-0.23 0.1,-0.326 0.05,-0.121 0.119,-0.223 0.207,-0.306 0.082,-0.08 0.191,-0.146 0.322,-0.197 0.131,-0.046 0.279,-0.07 0.461,-0.07 h 3.447 c 0.246,0 0.461,0.013 0.646,0.033 0.184,0.023 0.352,0.058 0.496,0.099 0.149,0.044 0.289,0.098 0.414,0.162 0.127,0.063 0.256,0.131 0.34,0.208 0.26,-0.168 0.537,-0.296 0.824,-0.375 0.293,-0.084 0.657,-0.127 1.078,-0.127 h 2.682 c 0.232,0 0.422,0.062 0.561,0.189 0.115,0.099 0.201,0.217 0.242,0.357 0.01,0.018 0.025,0.035 0.037,0.053 V 0 c 0.232,-0.233 0.482,-0.401 0.746,-0.498 0.275,-0.103 0.529,-0.152 0.777,-0.152 0.063,0 0.135,0.041 0.209,0.121 0.071,0.072 0.141,0.163 0.213,0.28 0.071,0.113 0.129,0.234 0.178,0.361 0.049,0.125 0.072,0.246 0.072,0.362 0,0.157 -0.027,0.314 -0.09,0.478 C 0.295,1.114 0.213,1.256 0.111,1.386"
         style="fill:#4f4c4d;fill-opacity:1;fill-rule:nonzero;stroke:none"
         transform="matrix(1.3333333,0,0,-1.3333333,233.98827,46.413467)" /><path
         id="path61"
         d="m 0,0 c -0.088,0.079 -0.16,0.137 -0.266,0.172 -0.013,0 -0.029,0 -0.103,-0.078 l -0.139,-0.139 c -0.051,-0.051 -0.096,-0.101 -0.148,-0.164 -0.047,-0.06 -0.059,-0.071 -0.035,-0.158 0.076,-0.041 0.15,-0.096 0.222,-0.167 0.073,-0.073 0.133,-0.138 0.209,-0.215 h 0.031 l 0.342,0.331 c 0.037,0.037 0.071,0.066 0.1,0.09 l 0.006,0.092 C 0.162,-0.161 0.088,-0.081 0,0"
         style="fill:#4f4c4d;fill-opacity:1;fill-rule:nonzero;stroke:none"
         transform="matrix(1.3333333,0,0,-1.3333333,250.83467,47.422533)" /><path
         id="path62"
         d="m 0,0 c -0.103,-0.004 -0.188,-0.008 -0.256,-0.008 -0.248,0 -0.506,0.039 -0.765,0.115 -0.233,0.07 -0.457,0.133 -0.659,0.165 -0.023,0.009 -0.049,0.016 -0.072,0.024 0.082,0.148 0.152,0.317 0.211,0.507 0.061,0.192 0.09,0.372 0.09,0.533 l -0.035,1.086 0.248,0.674 C -1.34,3.136 -1.428,3.174 -1.51,3.213 -1.586,3.25 -1.654,3.299 -1.713,3.355 -1.771,3.413 -1.818,3.482 -1.853,3.559 -1.891,3.635 -1.916,3.734 -1.932,3.863 L -1.945,3.958 -2.006,3.887 C -2.096,3.79 -2.168,3.662 -2.219,3.508 -2.271,3.355 -2.295,3.229 -2.295,3.131 -2.295,3.049 -2.279,2.972 -2.248,2.898 -2.213,2.838 -2.17,2.778 -2.131,2.75 -2.127,2.696 -2.113,2.6 -2.092,2.462 -2.074,2.33 -2.051,2.175 -2.033,2 L -1.975,1.447 C -1.961,1.25 -1.951,1.07 -1.951,0.9 -1.951,0.838 -1.969,0.789 -2.006,0.752 -2.045,0.712 -2.104,0.682 -2.176,0.662 -2.248,0.641 -2.33,0.628 -2.439,0.623 -2.646,0.611 -2.932,0.623 -3.068,0.591 -3.133,0.569 -3.18,0.543 -3.205,0.504 -3.26,0.42 -3.316,0.322 -3.375,0.219 -3.43,0.118 -3.496,0.026 -3.57,-0.109 l 0.049,-0.062 0.031,0.013 c 0.062,0.029 0.137,0.051 0.236,0.065 0.133,0.021 0.32,0.07 0.705,-0.014 0.112,-0.026 0.237,-0.055 0.367,-0.094 0.127,-0.037 0.26,-0.078 0.393,-0.126 0.098,-0.036 0.191,-0.07 0.283,-0.106 -0.15,-0.078 -0.285,-0.161 -0.408,-0.247 -0.143,-0.101 -0.299,-0.197 -0.482,-0.287 -0.178,-0.087 -0.397,-0.164 -0.651,-0.225 -0.262,-0.062 -0.596,-0.095 -0.992,-0.097 h -7.127 c -0.174,0 -0.314,0.025 -0.422,0.076 -0.107,0.052 -0.189,0.127 -0.254,0.23 -0.062,0.106 -0.107,0.238 -0.129,0.391 -0.025,0.156 -0.039,0.338 -0.039,0.541 v 0.164 c 0,0.055 0.004,0.112 0.008,0.171 0.012,0.165 0.016,0.335 0.016,0.506 v 0.5 c 0,0.288 0,0.56 -0.006,0.817 -0.006,0.258 -0.014,0.487 -0.024,0.686 l -0.021,0.645 -0.029,0.074 c -0.024,0.025 -0.051,0.035 -0.082,0.035 L -12.24,3.503 C -12.256,3.486 -12.277,3.46 -12.309,3.421 -12.336,3.381 -12.371,3.34 -12.42,3.285 l -0.129,-0.153 c -0.045,-0.05 -0.084,-0.093 -0.135,-0.179 0.026,-0.044 0.057,-0.138 0.084,-0.342 0.028,-0.168 0.051,-0.365 0.067,-0.588 0.017,-0.222 0.029,-0.46 0.037,-0.714 0.008,-0.25 0.012,-0.494 0.012,-0.723 v -1.191 c 0,-0.194 0.009,-0.374 0.037,-0.536 0.017,-0.162 0.07,-0.311 0.152,-0.446 0.078,-0.13 0.199,-0.233 0.361,-0.311 0.159,-0.074 0.362,-0.11 0.618,-0.11 h 7.134 c 0.338,0 0.639,0.026 0.893,0.073 0.246,0.044 0.476,0.113 0.685,0.199 0.215,0.09 0.401,0.188 0.569,0.298 0.178,0.116 0.357,0.242 0.549,0.377 0.131,0.089 0.248,0.161 0.365,0.221 0.111,0.061 0.223,0.107 0.338,0.142 0.109,0.032 0.232,0.057 0.363,0.072 0.131,0.017 0.277,0.022 0.486,0.061 0.002,0.022 0.014,0.051 0.034,0.098 0.017,0.046 0.041,0.092 0.078,0.163 l 0.138,0.241 -0.06,0.084 C 0.184,0.012 0.098,0.004 0,0"
         style="fill:#4f4c4d;fill-opacity:1;fill-rule:nonzero;stroke:none"
         transform="matrix(1.3333333,0,0,-1.3333333,252.582,44.544933)" /><path
         id="path63"
         d="M 0,0 C -0.078,0.038 -0.146,0.087 -0.201,0.14 -0.256,0.196 -0.307,0.267 -0.34,0.343 -0.381,0.425 -0.408,0.528 -0.422,0.649 L -0.434,0.743 -0.496,0.673 C -0.586,0.571 -0.654,0.448 -0.707,0.293 -0.76,0.143 -0.785,0.015 -0.785,-0.085 c 0,-0.09 0.025,-0.173 0.076,-0.245 0.043,-0.071 0.094,-0.136 0.143,-0.225 0.017,-0.176 0.035,-0.383 0.056,-0.621 0.022,-0.264 0.043,-0.54 0.059,-0.833 0.017,-0.289 0.031,-0.578 0.045,-0.872 0.01,-0.292 0.017,-0.557 0.017,-0.796 0,-0.391 -0.002,-0.724 -0.007,-1.004 -0.01,-0.277 -0.026,-0.48 -0.036,-0.648 l 0.049,-0.041 h 0.069 l 0.013,0.018 c 0.088,0.136 0.164,0.259 0.229,0.37 0.064,0.122 0.113,0.231 0.14,0.329 0.036,0.105 0.059,0.214 0.073,0.322 0.009,0.108 0.017,0.234 0.017,0.374 0,0.24 -0.004,0.503 -0.012,0.787 -0.005,0.282 -0.017,0.566 -0.031,0.853 l -0.088,1.569 0.227,0.588 0.004,0.001 0.014,0.039 C 0.172,-0.081 0.082,-0.038 0,0"
         style="fill:#4f4c4d;fill-opacity:1;fill-rule:nonzero;stroke:none"
         transform="matrix(1.3333333,0,0,-1.3333333,254.46227,40.189467)" /></g></g></svg>
